<svg width="160" height="160" fill="none" xmlns="http://www.w3.org/2000/svg"><path d="M80 157.49c10.462 0 20.61-2.048 30.162-6.088a77.227 77.227 0 0 0 24.632-16.608 77.227 77.227 0 0 0 16.608-24.632c4.04-9.552 6.088-19.7 6.088-30.162 0-10.463-2.048-20.61-6.088-30.162a77.22 77.22 0 0 0-16.608-24.632 77.232 77.232 0 0 0-24.632-16.608C100.61 4.558 90.462 2.51 80 2.51S59.39 4.56 49.838 8.6c-9.227 3.902-17.515 9.49-24.632 16.607-7.118 7.117-12.705 15.405-16.608 24.632C4.558 59.389 2.51 69.538 2.51 80s2.05 20.61 6.09 30.162c3.902 9.227 9.49 17.515 16.607 24.632a77.216 77.216 0 0 0 24.632 16.608c9.551 4.04 19.7 6.088 30.162 6.088Zm0 2.51c-44.183 0-80-35.817-80-80C0 35.818 35.817 0 80 0s80 35.818 80 80c0 44.183-35.817 80-80 80Z" fill="#F1F1F1"/><path d="M80 154.363c10.04 0 19.778-1.966 28.945-5.843a74.122 74.122 0 0 0 23.638-15.937c6.83-6.83 12.192-14.782 15.937-23.637 3.877-9.168 5.843-18.907 5.843-28.946 0-10.04-1.966-19.777-5.843-28.945a74.1 74.1 0 0 0-15.937-23.638 74.1 74.1 0 0 0-23.638-15.937C99.778 7.603 90.04 5.636 80 5.636S60.222 7.603 51.054 11.48a74.12 74.12 0 0 0-23.637 15.937 74.117 74.117 0 0 0-15.938 23.638C7.602 60.223 5.636 69.96 5.636 80c0 10.04 1.966 19.778 5.843 28.946a74.124 74.124 0 0 0 15.938 23.637 74.142 74.142 0 0 0 23.637 15.937c9.168 3.877 18.906 5.843 28.946 5.843Zm0 .837c-41.532 0-75.2-33.668-75.2-75.2C4.8 38.468 38.468 4.8 80 4.8c41.532 0 75.2 33.669 75.2 75.2 0 41.532-33.668 75.2-75.2 75.2Z" fill="#F1F1F1"/><path d="m31.334 68.955-1.612 9.62-3.53-.592 1.508-8.996a1.212 1.212 0 0 0-.318-1.079c-.249-.268-.585-.439-1.01-.51-.415-.07-.774-.02-1.077.147-.345.19-.554.5-.627.934l-1.507 8.997-3.765-.631 1.508-8.997c.07-.424-.019-.776-.27-1.055a1.623 1.623 0 0 0-.968-.518c-.423-.071-.794-.02-1.116.154-.364.195-.58.501-.65.916l-1.507 8.996-3.57-.598 1.61-9.62c.24-1.43.986-2.486 2.236-3.168 1.136-.615 2.4-.807 3.79-.574a5.731 5.731 0 0 1 1.71.563c.522.273.962.62 1.317 1.039a4.801 4.801 0 0 1 1.623-.518 6.077 6.077 0 0 1 1.815.042c1.385.232 2.501.812 3.35 1.742.948 1.031 1.301 2.267 1.06 3.706Zm4.344-11.856c-.967 1.933-2.217 3.222-3.752 3.867-1.205.506-2.555.615-4.052.327-.983-.187-1.98-.534-2.992-1.04a18.408 18.408 0 0 1-.492-.254 1.785 1.785 0 0 1-.241-.16l-7.2-3.6 1.695-3.389 7.198 3.599c1.296.647 2.522.921 3.68.82 1.334-.117 2.277-.728 2.83-1.834l3.055-6.112 3.327 1.663-3.056 6.113Zm12.326-15.867-12.55-6.044c-.12-.079-.24-.057-.357.063a.372.372 0 0 0-.096.398l6.349 12.364-2.88 2.936c-.417-.738-1.22-2.23-2.41-4.479-1.188-2.247-2.299-4.39-3.33-6.423-1.146-2.265-1.753-3.556-1.823-3.873-.104-.575-.02-1.18.25-1.818a5.733 5.733 0 0 1 1.205-1.769 5.661 5.661 0 0 1 1.74-1.232c.63-.28 1.231-.373 1.808-.28.345.05 1.647.62 3.907 1.71 1.389.669 3.542 1.747 6.46 3.234 1.776.903 3.298 1.676 4.568 2.318l-2.84 2.895Zm3.173-8.628c.984.65 1.872.753 2.664.31l6.765-3.776 1.812 3.247-7.315 4.084c-1.757.98-3.571.993-5.444.036-1.68-.86-3.082-2.294-4.203-4.302-1.139-2.04-1.644-4.038-1.515-5.995.141-2.167 1.077-3.733 2.81-4.7l7.314-4.084 1.765 3.161-6.763 3.776c-.817.456-1.217 1.247-1.2 2.371.016 1.008.343 2.083.98 3.225.656 1.174 1.432 2.057 2.33 2.647Zm25.36-7.073.843 3.952-11.518-1.931.816 3.83-3.705.79L59.396 15.4l3.705-.79.873 4.09 9.724-6.483.858 4.021-9.148 6.429.135.63 10.994 2.234Zm25.614-6.228-8.889-2.052c-.401-.092-.752-.013-1.055.237a1.75 1.75 0 0 0-.595.988c-.093.4-.06.766.099 1.098.158.332.447.548.867.644l5.237 1.21c1.412.326 2.407 1.112 2.984 2.36.519 1.118.618 2.375.296 3.77-.32 1.385-.96 2.471-1.92 3.258-1.064.868-2.302 1.14-3.716.812l-9.531-2.2.82-3.556 8.93 2.062c.384.089.72 0 1.012-.263.291-.264.484-.601.579-1.011.094-.41.07-.783-.073-1.12-.143-.334-.416-.549-.817-.642l-5.25-1.212c-1.423-.328-2.427-1.112-3.015-2.35-.531-1.11-.637-2.357-.318-3.74.316-1.366.956-2.436 1.923-3.21 1.082-.863 2.33-1.131 3.743-.805l9.503 2.194-.814 3.528Zm18.854 5.796-2.064 3.557-11.094-1.377-.324.558 6.649 9.036-2.028 3.496-7.242-9.165-1.965 3.387-3.277-1.902 8.609-14.832 3.277 1.902-2.099 3.617 11.558 1.723Zm-.586 17.91c.651.698 1.375 1.122 2.17 1.276.887.169 1.669-.062 2.345-.694l7.58-7.084 2.462 2.635-8.032 7.507c-1.447 1.354-3.126 1.871-5.034 1.555-1.724-.284-3.27-1.157-4.636-2.62-1.329-1.421-2.064-2.975-2.207-4.66-.163-1.886.491-3.514 1.96-4.886l8.031-7.507 2.539 2.717-7.578 7.083c-.656.613-.92 1.384-.792 2.315.117.851.515 1.638 1.192 2.363Zm12.21 7.733c-1.3.638-2.261 1.448-2.882 2.43-.715 1.133-.8 2.254-.256 3.362l3.012 6.136-3.339 1.638-3.011-6.135c-.952-1.94-1.221-3.716-.803-5.328.326-1.265 1.058-2.406 2.193-3.422.745-.668 1.626-1.25 2.641-1.749.235-.115.402-.195.501-.237.098-.043.189-.075.273-.096l7.225-3.546 1.67 3.4-7.224 3.547Zm6.278 16.437c-1.43.228-2.587.721-3.469 1.478-1.015.873-1.425 1.92-1.23 3.14l1.079 6.748-3.672.587-1.079-6.748c-.342-2.135-.077-3.911.794-5.33.684-1.113 1.718-1.99 3.102-2.627.908-.42 1.921-.72 3.037-.898.259-.042.442-.069.548-.08a1.65 1.65 0 0 1 .29-.011l7.948-1.272.598 3.742-7.946 1.271ZM24.635 102.195l.486 1.563-5.073 1.577-.486-1.563 2.011-.625-.455-1.464-2.012.626-.485-1.563 5.073-1.579.486 1.564-1.762.548.455 1.464 1.762-.548Zm2.137 8.791-1.158-2.506-.602.278 1.053 2.276-1.148.531-1.052-2.276-.602.278 1.194 2.579-1.237.572-1.88-4.066 4.822-2.229 1.846 3.991-1.236.572Zm.728 8.946-.903-1.436.524-.593-.9-1.431-.768.203-.875-1.393 5.54-1.169.85 1.356-3.468 4.463Zm1.536-4.199-1.66.437.535.85 1.132-1.274-.007-.013Zm6.096 5.373 1.061 1.304-5.17 2.065-1.154-1.42 3.122-4.581 1.042 1.281-1.95 2.708.01.012 3.04-1.369Zm5.995 6.234-3.704 1.083-1.362 1.405-1.176-1.139 1.363-1.405.995-3.709 1.299 1.258-.727 2.021 2.024-.762 1.288 1.248Zm8.171 7.861-1.305-.831a.41.41 0 0 0 .065-.462.85.85 0 0 0-.337-.373c-.188-.12-.527-.265-.688-.014-.178.336.419.813.94 1.392.523.58.963 1.274.44 2.097-.744 1.167-2.057.861-3.056.226-.508-.324-1.843-1.429-.944-2.868l1.382.878a.984.984 0 0 0-.138.328c-.072.333.194.582.452.746.225.143.619.287.83-.045.148-.232-.007-.419-.639-1.13-.582-.653-1.268-1.363-.692-2.267.659-1.036 1.828-.918 2.75-.331.974.619 1.598 1.537.94 2.654Zm6.707 3.615c-.551 1.163-1.59 1.337-2.692.815l-.875-.415-.689 1.452-1.479-.701 2.278-4.801 2.474 1.174c1.305.619 1.309 1.79.983 2.476Zm-1.903-1.406-.659-.312-.462.975.571.271c.383.182.8.346 1.029-.138.208-.437-.116-.623-.48-.796Zm9.15 4.805c-.495 1.545-1.877 2.32-3.414 1.827-1.538-.492-2.21-1.927-1.715-3.472.496-1.545 1.878-2.32 3.415-1.828 1.538.494 2.21 1.929 1.715 3.473Zm-2.118-2.211c-.398-.128-1.09-.061-1.452 1.066-.362 1.127.164 1.584.56 1.712.397.127 1.09.06 1.453-1.067.36-1.127-.164-1.584-.561-1.711Zm10.036 2.639c-.096.542-.446 1.07-1.016 1.173.41.246.595.778.54 1.44-.024.261-.128.885-.023 1.153l-1.613-.285a3.818 3.818 0 0 1 .01-.83c.045-.506.093-1.033-.544-1.146l-.858-.152-.322 1.824-1.612-.284.925-5.231 3.07.541c.916.163 1.618.808 1.443 1.797Zm-2.367-.675-.754-.133-.184 1.04.842.149c.3.053.72.074.803-.394.058-.33-.091-.553-.707-.662Zm9.385 1.017-1.486-.077-.204 3.945-1.635-.083.205-3.947-1.487-.077.07-1.359 4.607.237-.07 1.361Zm5.053 3.889c-.602.041-2.331-.055-2.464-1.747l1.634-.113c.009.134.04.251.083.345.141.311.502.353.807.332.267-.018.67-.135.643-.529-.02-.275-.255-.333-1.187-.53-.855-.179-1.828-.344-1.902-1.413-.085-1.225.925-1.825 2.017-1.9 1.151-.079 2.199.289 2.332 1.577l-1.545.107a.406.406 0 0 0-.222-.41.851.851 0 0 0-.491-.1c-.223.015-.582.1-.562.396.056.378.819.407 1.583.562.764.157 1.53.455 1.598 1.428.095 1.38-1.144 1.914-2.324 1.995Zm13.677-2.595-2.364-2.345-.014.004.796 2.793-1.489.423-1.456-5.11 1.61-.459 2.268 2.31.015-.004-.78-2.734 1.488-.425 1.458 5.111-1.532.436Zm7.148-2.496c-1.487.651-2.506.326-3.097-1.024l-1.307-2.985 1.499-.656 1.161 2.651c.218.498.49 1.117 1.219.799.709-.311.437-.931.219-1.429l-1.161-2.651 1.499-.657 1.308 2.985c.591 1.349.145 2.317-1.34 2.967Zm7.77-4.223-1.402.845-2.039-3.385-1.275.769-.702-1.168 3.951-2.379.703 1.165-1.275.769 2.039 3.384Zm6.599-4.707a3.823 3.823 0 0 1-.611-.56c-.349-.369-.711-.756-1.22-.356l-.683.54 1.148 1.455-1.285 1.014-3.291-4.17 2.446-1.932c.731-.576 1.68-.671 2.303.117.34.432.501 1.045.199 1.539.457-.142.978.073 1.434.556.179.19.577.682.845.783l-1.285 1.014Zm-2.308-2.661c-.207-.263-.474-.3-.964.088l-.602.474.655.829.671-.529c.24-.19.534-.489.24-.862Zm5.854-.47-3.711-3.803 1.172-1.143 3.711 3.802-1.172 1.144Zm5.437-5.872-1.05 1.256-3.032-2.534-.955 1.142-1.045-.873 2.959-3.541 1.045.874-.954 1.142 3.032 2.534Zm2.848-3.783-4.4-2.978.917-1.355 4.4 2.978-.917 1.355Zm4.089-6.491c-.752 1.428-2.282 1.842-3.717 1.086s-1.959-2.252-1.206-3.68c.752-1.428 2.282-1.841 3.716-1.086 1.435.757 1.959 2.252 1.207 3.68Zm-1.969-2.231c-1.047-.552-1.589-.114-1.782.255-.195.368-.25 1.062.797 1.614 1.046.552 1.589.114 1.783-.255.194-.369.248-1.063-.798-1.614Zm5.56-6.322-3.284.54-.005.014 2.727.991-.529 1.455-4.993-1.815.573-1.573 3.2-.484.005-.014-2.672-.971.529-1.454 4.992 1.815-.543 1.496ZM122.32 94.885c-2.718-2.625-2.849-5.807-1.937-9.425.363-1.441 1.089-11.846 1.089-12.214 0-1.82.109-5.459-.145-7.151-1.085-7.209-2.898-8.824-7.034-12.96-3.903-3.903-9.332-6.528-14.557-8.427-1.574-.571-3.203-.991-4.812-1.457-5.126-1.482-10.792-1.754-14.964-1.776h-.003c-4.172.022-9.838.294-14.965 1.776-1.61.466-3.238.886-4.811 1.457-5.225 1.899-10.655 4.524-14.558 8.428-4.135 4.135-5.949 5.75-7.034 12.959-.254 1.692.581 17.924.944 19.365.913 3.618.781 6.8-1.937 9.425-.825.798-.828 1.556-.426 2.508.68 1.606 1.04 5.178 1.983 6.642 1.023 1.59 3.282 3.114 4.209 3.717.405.264 1.968 1.11 2.347 1.277.608.267 5.603.833 6.311.833.654 0 7.828.771 7.828 4.19 0 2.156-.322 2.593.142 4.737.174.806 1.178 4.501 1.125 4.682-.037.125-.044 1.672-.049 1.802-.015.398-.006.803.11 1.184.116.382.35.741.698.936.414.232 1.22.204 1.693.161.186-.017.382-.038.533-.149.092-.067.169-2.335.27-3.437.047-.512.162-.3.173-.352.007.021.14-.124.194.402.109 1.04.177 3.112.21 3.141.102.09.248.103.383.112.313.02.84.036 1.12-.105.122-.063.229-.152.35-.216.267-.14.38-.144.673-.212a.543.543 0 0 0 .25-.113.496.496 0 0 0 .134-.274c.038-.189.089-.388.031-.573-.022-.07-.119-1.872-.099-2.861.012-.589.151-.556.137-.615.027.094.086.066.155.632.125 1.027.284 2.899.345 3.133.025.092-.012.197.035.281.068.119.226.165.365.151.14-.015.268-.078.398-.129.328-.13.483-.189.837-.172.344.016.512.098.813-.065.279-.151.412-.479.42-.788.002-.112-.038-1.675.014-2.511.038-.601.178-.543.16-.621.03-.005.053.271.059.321.042.345.314 3.098.58 3.323.264.224.642.232.987.229.474-.004.543-.007 1.018-.011.142-.001.287-.003.42-.051a.89.89 0 0 0 .336-.231c.25-.258.405-2.449.542-3.543.064-.502.186-.233.2-.401.004.105.112-.061.15.468.068.925.084 2.731.097 2.914.01.142.029.298.136.394.07.063.165.09.257.106.703.121 1.62-.244 2.326-.141.291.043.58.165.87.11.201-.038.254-2.039.334-3.166.042-.593.156-.64.163-.692.169-.155.114.577.12.759.022.148.1 3.041.408 3.099.289.055.578-.067.869-.11.706-.103 1.623.262 2.326.141a.501.501 0 0 0 .257-.106c.108-.096.126-.252.136-.394.013-.181.006-1.911.073-2.831.04-.543.17-.444.174-.551.015.171.059.003.124.518.139 1.091.371 3.17.618 3.426a.891.891 0 0 0 .335.231c.135.048.28.05.422.051.474.004.543.007 1.017.011.346.003.724-.005.987-.229.164-.139.278-2.123.41-3.14.081-.634.218-.506.23-.504-.018.075.005-.067.04.504.053.851.131 2.513.134 2.628.007.309.14.637.42.788.3.163.468.081.812.065.354-.017.51.042.838.172.13.051.258.114.397.129.14.014.298-.032.365-.151.047-.084.01-.189.035-.281.057-.214.195-2.113.313-3.1.082-.683.156-.557.187-.665-.015.066.1.042.114.732.02.947-.056 2.679-.076 2.744-.057.185-.007.384.031.573.02.102.058.204.134.274a.54.54 0 0 0 .25.113c.294.068.407.072.673.212.121.064.228.153.35.216.28.141.808.125 1.12.105.136-.009.282-.022.383-.112.033-.028.112-1.936.22-2.974.058-.555.177-.548.184-.569.011.053.15-.09.2.452.101 1.102.153 3.272.243 3.337.15.111.347.132.533.149.474.043 1.28.071 1.694-.161.347-.195.581-.554.697-.936.116-.381.125-.786.11-1.184-.004-.13-.012-1.677-.048-1.802-.054-.181.95-3.876 1.125-4.682.464-2.144.141-2.581.141-4.737 0-3.419 7.039-4.19 7.828-4.19.732 0 5.703-.566 6.311-.833.379-.167 1.942-1.013 2.348-1.277.926-.603 3.069-2.077 4.208-3.717.994-1.43 1.304-5.036 1.983-6.642.403-.951.4-1.71-.426-2.508Zm-36.51 14.121c-.097.575-.66 1.303-1.189 1.522-.767.317-1.644.121-2.228-.689-.41-.57-.909-1.076-1.35-1.625-1.01-1.255-1.208-1.245-2.17 0-.43.558-.939 1.055-1.35 1.625-.584.81-1.46 1.006-2.228.689-.528-.219-1.091-.947-1.188-1.522-.755-4.492-.032-8.801 2.146-12.785.744-1.362 1.246-3.116 2.95-3.826.246-.102.5-.17.755-.206.254.035.51.104.755.206 1.478.616 2.431 2.757 2.95 3.707 2.178 3.984 2.901 8.412 2.147 12.904Zm-3.126-18.32c0-.598 1.65-2.14 3.542-1.473.67.237 3.056.201 3.561.14.836-.102 1.842-.487 2.47-.912 2.426-1.642 2.273-2.092 4.44-4.049 2.647-2.391 4.972-5.136 7.532-7.63 1.082-1.054 2.339-1.974 3.644-2.736.939-.549 4.271-.847 5.354-1.051 1.232-.233 2.27.324 2.216 1.598-.062 1.48-.154 2.998-.545 4.414-1.161 4.201-2.081 9.238-4.477 12.896-.246.377-1.516 1.602-1.908 1.848-2.001 1.253-3.802 2.433-6.042 2.999-.305.077-2.088-.908-2.5-1.072-3.233-1.292-5.16-1.433-8.612-1.736-.597-.052-6.024-1.597-8.675-3.236Zm-5.452 0c-2.651 1.639-8.078 3.184-8.675 3.236-3.452.303-5.379.444-8.612 1.736-.411.164-2.194 1.15-2.5 1.072-2.24-.566-4.041-1.746-6.042-3-.392-.245-1.661-1.47-1.908-1.847-2.396-3.658-3.316-8.695-4.477-12.896-.39-1.416-.482-2.935-.545-4.414-.053-1.274.984-1.83 2.216-1.598 1.083.204 4.415.502 5.355 1.05 1.304.763 2.561 1.683 3.643 2.737 2.56 2.494 4.885 5.239 7.532 7.63 2.167 1.957 2.014 2.407 4.44 4.049.628.425 1.634.81 2.47.912.506.061 2.891.097 3.561-.14 1.893-.668 3.542.942 3.542 1.473ZM136.265 80.431v-1.596h-.572v-.291h1.475v.29h-.572v1.597h-.331ZM139.079 80.431v-1.457l-.578 1.457h-.141l-.58-1.457v1.457h-.331v-1.888h.467l.515 1.297.512-1.297h.466v1.888h-.33Z" fill="#F1F1F1"/></svg>