<svg width="25" height="11" fill="none" xmlns="http://www.w3.org/2000/svg"><path fill-rule="evenodd" clip-rule="evenodd" d="M1.67 0h1.155v10.825H1.67V0ZM3.19 0h.358v10.825H3.19V0ZM3.86 0H4.5v10.825H3.86V0ZM5.12 0h.358v10.825H5.12V0ZM5.634 0h.276v10.825h-.276V0ZM.79 0h.36v10.825H.79V0ZM0 0h.642v10.825H0V0ZM7.824 0H8.98v10.825H7.824V0ZM9.345 0h.359v10.825h-.36V0ZM10.016 0h.641v10.825h-.641V0ZM11.276 0h.356v10.825h-.356V0ZM11.79 0h.276v10.825h-.276V0ZM6.946 0h.357v10.825h-.357V0ZM6.156 0h.642v10.825h-.642V0ZM12.52 0h.64v10.825h-.64V0ZM13.778 0h.359v10.825h-.36V0ZM14.294 0h.274v10.825h-.274V0ZM15.605 0h.359v10.825h-.36V0ZM14.815 0h.641v10.825h-.641V0ZM16.44 0h.359v10.825h-.36V0ZM16.954 0h.276v10.825h-.276V0ZM18.264 0h.36v10.825h-.36V0ZM17.474 0h.642v10.825h-.642V0ZM18.936 0h1.155v10.825h-1.155V0ZM20.457 0h.357v10.825h-.357V0ZM21.126 0h.641v10.825h-.641V0ZM22.385 0h.36v10.825h-.36V0ZM22.9 0h.276v10.825H22.9V0ZM23.63 0h.642v10.825h-.642V0Z" fill="#000"/><path fill-rule="evenodd" clip-rule="evenodd" d="M1.309 10.849h22.158V4.782H1.309v6.067Z" fill="#fff"/><path d="M1.725 10.617v-5.49h2.06c.419 0 .755.056 1.01.167.252.11.45.282.594.514.145.23.217.471.217.724 0 .234-.064.455-.191.663a1.37 1.37 0 0 1-.576.501c.331.098.588.264.765.5.178.233.267.511.267.83 0 .257-.055.497-.163.718-.108.22-.242.39-.402.512-.159.119-.36.21-.6.272a3.651 3.651 0 0 1-.887.091H1.725v-.002Zm.728-3.182h1.188c.323 0 .552-.021.692-.064a.774.774 0 0 0 .419-.274.789.789 0 0 0 .14-.48.87.87 0 0 0-.132-.482.66.66 0 0 0-.373-.287c-.162-.05-.442-.076-.835-.076H2.453v1.663Zm0 2.538h1.369c.235 0 .399-.008.494-.027.166-.03.306-.079.419-.149a.813.813 0 0 0 .278-.306.962.962 0 0 0 .109-.463.91.91 0 0 0-.16-.535.82.82 0 0 0-.437-.319c-.185-.061-.455-.091-.803-.091h-1.27v1.89h.002ZM6.532 8.627c0-.735.204-1.279.614-1.634.342-.293.758-.44 1.251-.44.546 0 .992.18 1.34.538.347.357.521.852.521 1.48 0 .513-.076.912-.23 1.205a1.61 1.61 0 0 1-.67.682 1.96 1.96 0 0 1-.96.242c-.557 0-1.008-.178-1.352-.533-.342-.357-.514-.87-.514-1.54Zm.69.002c0 .508.11.89.334 1.14.223.254.503.381.841.381.336 0 .614-.127.837-.38.223-.255.334-.642.334-1.162 0-.49-.113-.863-.336-1.113a1.069 1.069 0 0 0-.835-.38c-.338 0-.618.125-.841.376-.223.25-.334.63-.334 1.138ZM11.033 10.617v-5.49h.676v5.49h-.676ZM15.467 9.328l.696.091c-.108.406-.312.72-.607.946-.297.223-.676.335-1.136.335-.58 0-1.041-.178-1.381-.537-.34-.357-.51-.858-.51-1.504 0-.667.172-1.185.514-1.553.344-.37.79-.552 1.338-.552.531 0 .965.18 1.3.541.336.362.506.871.506 1.526l-.004.178h-2.964c.026.436.149.771.37 1.003.22.231.5.348.828.348.247 0 .457-.066.631-.195.179-.132.317-.34.419-.627Zm-2.21-1.08h2.216c-.03-.335-.115-.583-.255-.751a1.029 1.029 0 0 0-.832-.389c-.31 0-.57.104-.78.31-.208.204-.325.482-.348.83ZM18.481 10.014l.091.595c-.189.04-.359.059-.507.059-.245 0-.434-.038-.57-.117a.658.658 0 0 1-.284-.306c-.055-.127-.081-.393-.081-.796v-2.29h-.497v-.52h.5v-.984l.675-.406v1.39h.673v.52h-.676v2.33c0 .193.011.317.037.372a.286.286 0 0 0 .114.131.45.45 0 0 0 .23.05c.074 0 .174-.01.295-.028ZM18.893 8.627c0-.735.204-1.279.614-1.634.342-.293.758-.44 1.251-.44.546 0 .992.18 1.34.538.347.357.521.852.521 1.48 0 .513-.076.912-.23 1.205a1.61 1.61 0 0 1-.67.682 1.96 1.96 0 0 1-.96.242c-.557 0-1.008-.178-1.352-.533-.342-.357-.514-.87-.514-1.54Zm.69.002c0 .508.111.89.334 1.14.223.254.503.381.841.381.336 0 .614-.127.837-.38.223-.255.334-.642.334-1.162 0-.49-.113-.863-.336-1.113a1.069 1.069 0 0 0-.835-.38c-.337 0-.618.125-.841.376-.223.25-.334.63-.334 1.138Z" fill="#000"/></svg>