<svg width="180" height="180" fill="none" xmlns="http://www.w3.org/2000/svg"><path opacity=".2" d="M90 157.5c37.279 0 67.5-30.221 67.5-67.5 0-37.28-30.221-67.5-67.5-67.5-37.28 0-67.5 30.22-67.5 67.5 0 37.279 30.22 67.5 67.5 67.5Z" fill="#CACACA"/><path d="M90 50.625v11.25m0 56.25v11.25m0 28.125c37.279 0 67.5-30.221 67.5-67.5 0-37.28-30.221-67.5-67.5-67.5-37.28 0-67.5 30.22-67.5 67.5 0 37.279 30.22 67.5 67.5 67.5Z" stroke="#CACACA" stroke-width="5" stroke-linecap="round" stroke-linejoin="round"/><path d="M73.125 118.125h25.313a14.063 14.063 0 0 0 0-28.125H81.561a14.063 14.063 0 0 1 0-28.125h25.313" stroke="#CACACA" stroke-width="5" stroke-linecap="round" stroke-linejoin="round"/></svg>