<svg width="18" height="16" fill="none" xmlns="http://www.w3.org/2000/svg"><path fill-rule="evenodd" clip-rule="evenodd" d="M7.838 15.3h2.596c4.053 0 7.282-3.215 7.409-7.187V8.05C17.779 4.016 14.487.738 10.434.8H7.522C3.659.928.62 4.206.747 8.114c0 3.909 3.166 7.124 7.091 7.187ZM2.013 8.05c0-3.278 2.723-5.988 6.015-5.988 3.293 0 6.016 2.71 6.016 5.988 0 3.278-2.723 5.989-6.016 5.989-3.292 0-6.015-2.71-6.015-5.989Zm6.965 4.035V4.079c2.216.567 3.61 2.773 3.04 4.98a4.114 4.114 0 0 1-3.04 3.026ZM4.103 7.04a4.142 4.142 0 0 0 2.976 5.044V4.079A4.155 4.155 0 0 0 4.103 7.04Z" fill="#0079BE"/></svg>