<svg width="26" height="10" fill="none" xmlns="http://www.w3.org/2000/svg"><path d="M3.824 2.496c.288-.095.596-.146.916-.146 1.397 0 2.563.974 2.83 2.268l1.981-.397C9.097 2.023 7.115.368 4.74.368c-.544 0-1.068.087-1.556.247l.64 1.88Z" fill="#FECA2F"/><path d="m1.467 8.868 1.186-1.532c-.53-.535-.863-1.317-.863-2.188 0-.87.333-1.652.863-2.187l-1.187-1.53C.566 2.34 0 3.667 0 5.147s.568 2.81 1.467 3.72Z" fill="#1BA7DE"/><path d="M7.571 5.68c-.268 1.294-1.433 2.266-2.83 2.266a2.93 2.93 0 0 1-.916-.146l-.641 1.882a4.98 4.98 0 0 0 1.558.248c2.373 0 4.353-1.654 4.809-3.852l-1.98-.398Z" fill="#EC412A"/><path fill-rule="evenodd" clip-rule="evenodd" d="M19.08 1.43v5.441l.976.392-.462 1.073-.966-.388a1.085 1.085 0 0 1-.475-.387 1.186 1.186 0 0 1-.187-.675V1.43h1.113Zm-7.406 4.044c.024-1.556 1.35-2.798 2.957-2.774 1.365.02 2.496.945 2.793 2.174l-5.279 2.182a2.734 2.734 0 0 1-.471-1.582Zm1.208.218a1.435 1.435 0 0 1-.01-.2c.014-.916.794-1.648 1.742-1.632a1.73 1.73 0 0 1 1.283.588l-3.015 1.244Zm2.904 1.01a1.746 1.746 0 0 1-2.112.218l-.638.983c.437.267.952.425 1.507.433a2.955 2.955 0 0 0 2.08-.802l-.837-.831Zm7.357-2.842c-.19 0-.373.03-.543.085l-.38-1.101c.29-.094.6-.145.923-.145 1.41 0 2.587.969 2.857 2.256l-1.176.232c-.159-.758-.85-1.327-1.68-1.327Zm-1.93 3.769.794-.869a1.631 1.631 0 0 1-.578-1.242c0-.495.223-.938.578-1.242l-.796-.869a2.773 2.773 0 0 0-.982 2.11c0 .841.38 1.595.983 2.112Zm1.93-.453c.83 0 1.521-.57 1.68-1.325L26 6.083c-.271 1.286-1.448 2.253-2.857 2.253a3 3 0 0 1-.925-.145l.381-1.1c.171.055.354.085.544.085Z" fill="#000"/></svg>