<svg width="124" height="40" fill="none" xmlns="http://www.w3.org/2000/svg"><path d="M6 .5h112a5.5 5.5 0 0 1 5.5 5.5v33.5H6A5.5 5.5 0 0 1 .5 34V6A5.5 5.5 0 0 1 6 .5Z" fill="#FF9601"/><path d="M12.5 15h11a1 1 0 0 1 1 1v9.925a.98.98 0 0 1-.581.906.92.92 0 0 1-.42.1 1 1 0 0 1-.643-.237l-1.987-1.669-8.37-.025a1 1 0 0 1-1-1v-8a1 1 0 0 1 1-1Zm8.5 5.75a.75.75 0 1 0 0-1.5.75.75 0 0 0 0 1.5Zm-3 0a.75.75 0 1 0 0-1.5.75.75 0 0 0 0 1.5Zm-3 0a.75.75 0 1 0 0-1.5.75.75 0 0 0 0 1.5ZM39.99 17.726a.174.174 0 0 1-.055.126.151.151 0 0 1-.112.042h-4.578c-.047 0-.07.023-.07.07v2.17c0 .047.023.07.07.07h3.01c.046 0 .084.019.112.056a.133.133 0 0 1 .056.112v1.358a.174.174 0 0 1-.056.126.151.151 0 0 1-.112.042h-3.01c-.047 0-.07.023-.07.07v3.864a.174.174 0 0 1-.056.126.151.151 0 0 1-.112.042h-1.638a.205.205 0 0 1-.126-.042.205.205 0 0 1-.042-.126v-9.464c0-.047.014-.084.042-.112a.174.174 0 0 1 .126-.056h6.454c.046 0 .084.019.112.056a.133.133 0 0 1 .056.112v1.358Zm3.105.966c.607 0 1.148.107 1.624.322.476.205.845.49 1.106.854.27.364.406.77.406 1.218v4.746a.174.174 0 0 1-.056.126.151.151 0 0 1-.112.042h-1.638a.205.205 0 0 1-.126-.042.205.205 0 0 1-.042-.126v-.462c0-.028-.01-.047-.028-.056-.019-.01-.037 0-.056.028-.392.513-1.022.77-1.89.77-.728 0-1.316-.177-1.764-.532-.448-.355-.672-.877-.672-1.568 0-.719.252-1.274.756-1.666.504-.401 1.223-.602 2.156-.602h1.428c.047 0 .07-.023.07-.07v-.308c0-.308-.093-.546-.28-.714-.187-.177-.467-.266-.84-.266-.29 0-.532.051-.728.154a.722.722 0 0 0-.364.434c-.028.103-.089.15-.182.14l-1.694-.224c-.112-.019-.163-.06-.154-.126.037-.392.191-.747.462-1.064a2.8 2.8 0 0 1 1.092-.742 4.19 4.19 0 0 1 1.526-.266Zm-.28 5.95c.401 0 .742-.107 1.022-.322.28-.215.42-.49.42-.826v-.504c0-.047-.023-.07-.07-.07H43.18c-.42 0-.751.08-.994.238a.766.766 0 0 0-.35.672c0 .252.089.453.266.602.177.14.415.21.714.21ZM47.79 26a.205.205 0 0 1-.126-.042.205.205 0 0 1-.042-.126v-9.464c0-.047.014-.084.042-.112a.174.174 0 0 1 .126-.056h1.638c.046 0 .084.019.112.056a.133.133 0 0 1 .056.112v9.464a.174.174 0 0 1-.056.126.151.151 0 0 1-.112.042H47.79Zm9.62-4.34c.056.355.074.751.056 1.19-.01.112-.07.168-.183.168h-4.325c-.056 0-.075.023-.056.07.027.187.079.373.154.56.242.523.737.784 1.483.784.598-.01 1.07-.252 1.414-.728.038-.056.08-.084.127-.084.028 0 .06.019.098.056l1.008.994c.046.047.07.089.07.126 0 .019-.02.056-.056.112a3.114 3.114 0 0 1-1.19.896 4.055 4.055 0 0 1-1.596.308c-.803 0-1.485-.182-2.044-.546-.551-.364-.948-.873-1.19-1.526-.197-.467-.294-1.078-.294-1.834 0-.513.07-.966.21-1.358a3.092 3.092 0 0 1 1.12-1.582c.54-.392 1.18-.588 1.917-.588.934 0 1.68.27 2.24.812.57.541.915 1.265 1.037 2.17Zm-3.262-1.274c-.589 0-.976.275-1.163.826a3.31 3.31 0 0 0-.097.448c0 .047.023.07.07.07h2.422c.055 0 .074-.023.055-.07a11.28 11.28 0 0 0-.07-.392 1.16 1.16 0 0 0-.448-.644c-.205-.159-.462-.238-.77-.238Zm10.5 5.726c-.746 0-1.394-.187-1.945-.56a3.07 3.07 0 0 1-1.162-1.54c-.159-.467-.238-1.017-.238-1.652 0-.625.08-1.167.238-1.624a2.905 2.905 0 0 1 1.162-1.498c.55-.364 1.2-.546 1.946-.546s1.4.187 1.96.56c.57.373.947.845 1.134 1.414.075.224.112.392.112.504v.028c0 .084-.047.135-.14.154l-1.61.238h-.028c-.084 0-.14-.047-.168-.14l-.042-.224a1.065 1.065 0 0 0-.434-.602 1.344 1.344 0 0 0-.798-.238c-.299 0-.55.075-.756.224-.206.15-.35.355-.434.616-.103.28-.154.663-.154 1.148 0 .485.047.868.14 1.148.084.28.229.5.434.658.214.159.471.238.77.238.29 0 .541-.075.756-.224.224-.159.378-.373.462-.644a.194.194 0 0 0 .014-.084c.01-.01.014-.023.014-.042.01-.112.075-.159.196-.14l1.61.252c.093.019.14.07.14.154 0 .075-.028.215-.084.42a2.603 2.603 0 0 1-1.148 1.47c-.56.355-1.209.532-1.946.532Zm7.452 0c-.784 0-1.456-.205-2.016-.616-.56-.41-.942-.97-1.148-1.68a4.985 4.985 0 0 1-.196-1.428c0-.55.066-1.045.196-1.484.215-.69.602-1.232 1.162-1.624.56-.392 1.232-.588 2.016-.588.766 0 1.419.196 1.96.588.542.383.924.92 1.148 1.61.15.467.224.957.224 1.47 0 .504-.065.975-.196 1.414-.205.728-.588 1.302-1.148 1.722-.55.41-1.218.616-2.002.616Zm0-1.694c.308 0 .57-.093.784-.28.215-.187.369-.443.462-.77.075-.299.112-.625.112-.98 0-.392-.037-.723-.112-.994-.102-.317-.261-.565-.476-.742a1.19 1.19 0 0 0-.784-.266c-.317 0-.583.089-.798.266-.205.177-.354.425-.448.742-.074.224-.112.555-.112.994 0 .42.033.747.098.98.094.327.248.583.462.77.224.187.495.28.812.28Zm8.367-5.726c.747 0 1.349.229 1.806.686.458.457.686 1.078.686 1.862v4.592a.174.174 0 0 1-.056.126.151.151 0 0 1-.112.042h-1.638a.205.205 0 0 1-.126-.042.205.205 0 0 1-.042-.126v-4.186c0-.373-.107-.677-.322-.91-.205-.233-.48-.35-.826-.35-.345 0-.625.117-.84.35-.205.233-.308.537-.308.91v4.186a.174.174 0 0 1-.056.126.151.151 0 0 1-.112.042h-1.638a.205.205 0 0 1-.126-.042.205.205 0 0 1-.042-.126v-6.86c0-.047.014-.084.042-.112a.174.174 0 0 1 .126-.056h1.638c.047 0 .084.019.112.056a.133.133 0 0 1 .056.112v.49c0 .028.01.047.028.056.019.01.033.005.042-.014.383-.541.952-.812 1.708-.812Zm7.041 7.42c-.783 0-1.456-.205-2.015-.616-.56-.41-.943-.97-1.148-1.68a4.985 4.985 0 0 1-.197-1.428c0-.55.066-1.045.197-1.484.214-.69.602-1.232 1.162-1.624.56-.392 1.231-.588 2.015-.588.766 0 1.42.196 1.96.588.542.383.924.92 1.148 1.61.15.467.225.957.225 1.47 0 .504-.066.975-.197 1.414-.205.728-.588 1.302-1.148 1.722-.55.41-1.218.616-2.002.616Zm0-1.694c.309 0 .57-.093.785-.28.214-.187.368-.443.461-.77.075-.299.112-.625.112-.98 0-.392-.037-.723-.112-.994-.102-.317-.26-.565-.476-.742a1.19 1.19 0 0 0-.784-.266c-.317 0-.583.089-.797.266-.206.177-.355.425-.448.742-.075.224-.112.555-.112.994 0 .42.032.747.097.98.094.327.248.583.463.77.224.187.494.28.811.28Zm7.486 1.68c-.626 0-1.172-.089-1.638-.266-.467-.177-.831-.425-1.093-.742a1.688 1.688 0 0 1-.378-1.078v-.14c0-.047.014-.084.042-.112a.174.174 0 0 1 .126-.056h1.555c.046 0 .084.019.111.056a.133.133 0 0 1 .056.112v.014c0 .205.112.383.337.532.233.14.522.21.868.21.317 0 .573-.06.77-.182.195-.13.293-.29.293-.476 0-.168-.084-.294-.252-.378-.167-.084-.443-.173-.825-.266a8.308 8.308 0 0 1-1.036-.322c-.598-.205-1.074-.457-1.429-.756-.354-.299-.532-.728-.532-1.288 0-.69.267-1.237.799-1.638.54-.41 1.255-.616 2.141-.616.598 0 1.12.098 1.569.294.448.187.793.453 1.035.798.252.345.378.737.378 1.176a.174.174 0 0 1-.056.126.151.151 0 0 1-.111.042h-1.499a.205.205 0 0 1-.125-.042.205.205 0 0 1-.042-.126c0-.205-.108-.378-.323-.518-.205-.14-.48-.21-.826-.21-.308 0-.56.056-.756.168-.196.112-.294.266-.294.462 0 .187.094.327.28.42.197.093.519.191.967.294.102.028.219.06.35.098.13.028.27.065.42.112.662.196 1.185.448 1.567.756.383.308.575.756.575 1.344 0 .69-.276 1.232-.826 1.624-.542.383-1.274.574-2.198.574Zm7.321.014c-.747 0-1.395-.187-1.946-.56a3.07 3.07 0 0 1-1.162-1.54c-.159-.467-.238-1.017-.238-1.652 0-.625.08-1.167.238-1.624a2.904 2.904 0 0 1 1.162-1.498c.551-.364 1.199-.546 1.946-.546.747 0 1.4.187 1.96.56.569.373.947.845 1.134 1.414.075.224.112.392.112.504v.028c0 .084-.047.135-.14.154l-1.61.238h-.028c-.084 0-.14-.047-.168-.14l-.042-.224a1.064 1.064 0 0 0-.434-.602 1.344 1.344 0 0 0-.798-.238 1.25 1.25 0 0 0-.756.224c-.205.15-.35.355-.434.616-.103.28-.154.663-.154 1.148 0 .485.047.868.14 1.148.084.28.229.5.434.658.215.159.471.238.77.238.289 0 .541-.075.756-.224.224-.159.378-.373.462-.644a.2.2 0 0 0 .014-.084c.009-.01.014-.023.014-.042.009-.112.075-.159.196-.14l1.61.252c.093.019.14.07.14.154 0 .075-.028.215-.084.42a2.604 2.604 0 0 1-1.148 1.47c-.56.355-1.209.532-1.946.532Zm7.451 0c-.784 0-1.456-.205-2.016-.616-.56-.41-.942-.97-1.148-1.68a5.006 5.006 0 0 1-.196-1.428c0-.55.066-1.045.196-1.484.215-.69.602-1.232 1.162-1.624.56-.392 1.232-.588 2.016-.588.766 0 1.419.196 1.96.588.542.383.924.92 1.148 1.61.15.467.224.957.224 1.47 0 .504-.065.975-.196 1.414-.205.728-.588 1.302-1.148 1.722-.55.41-1.218.616-2.002.616Zm0-1.694c.308 0 .57-.093.784-.28.215-.187.369-.443.462-.77a4.02 4.02 0 0 0 .112-.98c0-.392-.037-.723-.112-.994-.102-.317-.261-.565-.476-.742a1.19 1.19 0 0 0-.784-.266c-.317 0-.583.089-.798.266-.205.177-.354.425-.448.742-.074.224-.112.555-.112.994 0 .42.033.747.098.98.094.327.248.583.462.77.224.187.495.28.812.28Z" fill="#0B0B0B"/><path d="M6 .5h112a5.5 5.5 0 0 1 5.5 5.5v33.5H6A5.5 5.5 0 0 1 .5 34V6A5.5 5.5 0 0 1 6 .5Z" stroke="#3A3A3C"/></svg>