<svg viewBox="0 0 483 314" fill="none" xmlns="http://www.w3.org/2000/svg"><g style="mix-blend-mode:overlay" opacity=".6" clip-path="url(#a)" fill="#fff"><path d="M204.282 253.142c26.515 7.105 53.627 8.806 80.577 5.053 26.036-3.626 50.836-12.158 73.708-25.365 22.873-13.203 42.662-30.415 58.819-51.151 16.727-21.463 28.81-45.792 35.914-72.308 7.106-26.517 8.806-53.627 5.052-80.579-3.624-26.036-12.157-50.835-25.364-73.705-13.204-22.873-30.416-42.663-51.15-58.82-21.464-16.726-45.794-28.811-72.308-35.916-26.515-7.104-53.628-8.803-80.578-5.05-26.038 3.625-50.836 12.158-73.707 25.365-22.873 13.203-42.663 30.412-58.82 51.148C79.7-46.72 67.615-22.394 60.51 4.124 53.405 30.638 51.706 57.75 55.46 84.7c3.624 26.037 12.157 50.837 25.364 73.708 13.203 22.873 30.412 42.662 51.149 58.82 21.464 16.726 45.794 28.808 72.309 35.913Zm-1.704 6.36C90.598 229.498 24.146 114.398 54.151 2.419c30.004-111.978 145.104-178.432 257.083-148.427C423.213-116.003 489.665-.903 459.661 111.075c-30.005 111.979-145.104 178.432-257.083 148.427Z"/><path d="M206.405 245.217c25.445 6.818 51.46 8.448 77.329 4.848 24.987-3.481 48.784-11.669 70.731-24.341 21.948-12.671 40.937-29.184 56.444-49.083 16.05-20.602 27.648-43.95 34.465-69.392 6.818-25.445 8.448-51.461 4.849-77.33-3.48-24.986-11.668-48.784-24.34-70.73-12.67-21.948-29.185-40.939-49.085-56.445-20.602-16.052-43.947-27.649-69.392-34.467-25.445-6.818-51.461-8.447-77.33-4.847-24.985 3.479-48.783 11.669-70.731 24.34-21.947 12.67-40.937 29.186-56.444 49.085C86.848-42.542 75.252-19.197 68.434 6.248c-6.817 25.443-8.448 51.46-4.847 77.329 3.48 24.986 11.669 48.781 24.34 70.729 12.672 21.948 29.187 40.938 49.085 56.445 20.603 16.052 43.948 27.648 69.393 34.466Zm-.568 2.121C100.577 219.134 38.111 110.94 66.315 5.68 94.519-99.58 202.714-162.046 307.973-133.842c105.26 28.205 167.726 136.399 139.522 241.659-28.204 105.26-136.399 167.726-241.658 139.521Z"/><path d="m141.064-4.296-10.617 23.287-8.543-3.895 9.929-21.779c.459-1.006.435-1.987-.073-2.948-.448-.85-1.185-1.51-2.213-1.979-1.006-.458-1.948-.578-2.83-.36-1.003.246-1.744.892-2.222 1.942l-9.929 21.779-9.114-4.156 9.93-21.778c.468-1.028.481-1.98.035-2.858-.448-.877-1.148-1.534-2.104-1.97-1.023-.467-2-.588-2.933-.367-1.054.248-1.81.876-2.267 1.88L98.182 4.279 89.539.339l10.615-23.286c1.579-3.463 4.186-5.634 7.818-6.513 3.298-.789 6.629-.417 9.996 1.118a15.042 15.042 0 0 1 3.949 2.59c1.14 1.046 2.019 2.222 2.635 3.526a12.591 12.591 0 0 1 4.466-.209c1.528.198 3.052.644 4.57 1.337 3.352 1.528 5.788 3.757 7.309 6.69 1.7 3.258 1.757 6.629.167 10.112Zm19.061-27.098c-3.762 4.242-7.806 6.66-12.134 7.253-3.397.466-6.894-.175-10.492-1.922-2.363-1.143-4.654-2.699-6.875-4.668a47.487 47.487 0 0 1-1.076-.977 4.655 4.655 0 0 1-.503-.57L113.244-46.29l6.597-7.44 15.797 14.008c2.845 2.521 5.768 4.049 8.772 4.579 3.459.608 6.266-.3 8.415-2.727l11.896-13.417 7.302 6.474-11.898 13.418Zm42.016-31.841-27.705-23.842c-.25-.281-.565-.308-.946-.082-.36.21-.531.526-.514.943l7.695 35.648-9.292 5.483c-.557-2.152-1.577-6.48-3.065-12.986a1094.29 1094.29 0 0 1-4.079-18.541c-1.366-6.52-2.029-10.204-1.99-11.055.126-1.528.749-3.006 1.87-4.437 1.123-1.433 2.54-2.653 4.253-3.665 1.713-1.01 3.46-1.657 5.246-1.94 1.785-.282 3.375-.111 4.773.518.841.36 3.753 2.69 8.74 6.987 3.066 2.638 7.793 6.831 14.18 12.582 3.885 3.495 7.218 6.487 10.001 8.978l-9.167 5.409Zm13.901-19.713c2.053 2.313 4.234 3.178 6.542 2.595l19.708-4.978 2.389 9.46-21.313 5.385c-5.118 1.29-9.725.09-13.823-3.606-3.674-3.322-6.253-7.908-7.729-13.758-1.502-5.946-1.426-11.352.232-16.223 1.828-5.396 5.263-8.73 10.311-10.006l21.312-5.382 2.326 9.211-19.706 4.978c-2.379.6-3.931 2.332-4.65 5.194-.644 2.564-.546 5.51.293 8.838.866 3.422 2.234 6.185 4.108 8.291Zm69.077-.706-.546 10.59-27.881-12.716-.533 10.26-9.928-.514 2.325-44.936 9.928.513-.566 10.958 29.046-9.825-.556 10.774-27.55 10.08-.085 1.69 26.346 13.127Zm69.146 1.612L333.131-93.28c-.956-.506-1.898-.544-2.836-.116-.937.427-1.664 1.13-2.179 2.1-.507.95-.671 1.9-.494 2.85.174.95.761 1.692 1.758 2.22l12.452 6.623c3.358 1.786 5.347 4.454 5.961 8.008.556 3.187-.046 6.439-1.811 9.754-1.752 3.294-4.109 5.614-7.076 6.956-3.288 1.477-6.611 1.323-9.971-.465L306.273-67.4l4.495-8.452 21.233 11.289c.91.485 1.823.49 2.741.02.918-.472 1.636-1.196 2.154-2.17.518-.976.71-1.937.575-2.886-.136-.946-.68-1.675-1.634-2.183l-12.484-6.638c-3.382-1.798-5.395-4.465-6.046-8.002-.591-3.176-.012-6.406 1.736-9.697 1.728-3.246 4.076-5.523 7.053-6.831 3.328-1.449 6.672-1.282 10.032.504l22.596 12.014-4.459 8.39Zm43.85 27.493-7.647 7.613-27.183-11.025-1.201 1.194 10.717 27.418-7.516 7.482-12.129-28.144-7.28 7.248-7.013-7.046 31.89-31.745 7.014 7.047-7.777 7.743 28.125 12.215Zm-13.65 44.993c1.176 2.21 2.722 3.778 4.635 4.709 2.133 1.03 4.271.975 6.413-.167l24.021-12.807 4.452 8.351L398.532 4.1c-4.587 2.449-9.194 2.62-13.815.522-4.176-1.89-7.501-5.151-9.972-9.787-2.402-4.505-3.211-8.943-2.427-13.312.867-4.887 3.629-8.57 8.284-11.05L406.056-43.1l4.59 8.611-24.019 12.807c-2.078 1.106-3.27 2.882-3.578 5.328-.28 2.237.192 4.502 1.416 6.798Zm25.695 27.89c-3.728.736-6.713 2.136-8.956 4.204-2.581 2.385-3.558 5.168-2.93 8.347l3.466 17.594-9.574 1.886-3.465-17.594c-1.097-5.565-.571-10.248 1.581-14.05 1.688-2.983 4.316-5.378 7.884-7.182 2.341-1.187 4.969-2.066 7.88-2.64a34.195 34.195 0 0 1 1.431-.262c.278-.042.531-.06.757-.056L428.953 4.5l1.924 9.754-20.717 4.08Zm4.747 45.923c-3.778-.392-7.046.07-9.795 1.391-3.165 1.523-4.915 3.896-5.248 7.12l-1.848 17.837-9.706-1.007 1.848-17.835c.583-5.642 2.462-9.964 5.633-12.966 2.489-2.36 5.704-3.878 9.644-4.554 2.587-.45 5.357-.519 8.309-.212a31.98 31.98 0 0 1 1.442.167c.28.042.527.096.743.17l21.006 2.174-1.025 9.89-21.003-2.175ZM101.515 75.4l.17 4.292-13.929.553-.17-4.292 5.52-.218-.158-4.02-5.524.22-.169-4.291 13.93-.556.17 4.295-4.838.19.159 4.02 4.839-.193Zm-.554 23.732-1.234-7.137-1.714.295 1.123 6.484-3.272.566-1.12-6.482-1.713.296 1.273 7.347-3.522.61-2.003-11.582 13.735-2.376 1.967 11.37-3.52.609ZM96.728 122.3l-1.313-4.253 1.73-1.148-1.305-4.237-2.087-.008-1.27-4.124 14.833.799 1.236 4.013-11.824 8.958Zm6.745-9.599-4.502-.021.777 2.518 3.735-2.46-.01-.037Zm11.803 17.757 1.802 4.026-14.504 1.723-1.961-4.385 11.024-9.49 1.771 3.956-6.781 5.539.015.036 8.634-1.405Zm10.959 19.87-10.122.231-4.408 2.636-2.205-3.686 4.408-2.636 5.041-8.725 2.437 4.071-3.216 4.629 5.649-.556 2.416 4.036Zm15.372 25.473-2.743-2.993c.44-.3.54-.71.478-1.128-.051-.43-.311-.856-.601-1.173-.396-.431-1.157-1.029-1.734-.503-.68.732.508 2.345 1.438 4.166.931 1.826 1.574 3.884-.312 5.614-2.677 2.454-5.798.785-7.896-1.503-1.069-1.166-3.701-4.873-.446-7.909l2.905 3.164c-.259.238-.45.491-.571.737-.409.797.095 1.608.638 2.196.473.518 1.374 1.15 2.136.453.532-.489.266-1.067-.852-3.299-1.033-2.049-2.289-4.315-.217-6.216 2.375-2.179 5.259-1.085 7.197 1.03 2.047 2.23 3.006 4.98.58 7.364Zm14.543 13.715c-2.187 2.575-4.939 2.311-7.377.237l-1.935-1.644-2.731 3.212-3.273-2.782 9.033-10.62 5.472 4.654c2.887 2.455 2.102 5.426.811 6.943Zm-3.869-4.854-1.457-1.24-1.834 2.158 1.264 1.076c.847.72 1.79 1.42 2.7.348.824-.965.131-1.658-.673-2.342Zm19.929 18.393c-2.304 3.578-6.333 4.604-9.894 2.31-3.563-2.292-4.294-6.386-1.991-9.965 2.307-3.577 6.336-4.605 9.897-2.313 3.563 2.295 4.294 6.389 1.988 9.968Zm-3.869-7.045c-.92-.592-2.722-.893-4.404 1.717-1.681 2.61-.66 4.125.26 4.718.918.592 2.722.894 4.404-1.717 1.68-2.609.66-4.126-.26-4.718Zm23.644 13.505c-.61 1.31-1.857 2.409-3.37 2.283.871.902.979 2.377.387 4.017-.237.645-.922 2.156-.84 2.905l-3.892-1.817c.102-.728.337-1.416.59-2.096.455-1.251.935-2.556-.604-3.276l-2.069-.966-2.057 4.405-3.891-1.817 5.896-12.629 7.413 3.458c2.211 1.033 3.552 3.145 2.437 5.533Zm-5.54-3.318-1.822-.851-1.172 2.512 2.033.951c.726.338 1.776.676 2.303-.455.372-.797.144-1.463-1.342-2.157Zm23.094 8.95-3.713-1.204-3.196 9.861-4.087-1.322 3.198-9.863-3.716-1.206 1.101-3.398 11.515 3.732-1.102 3.4Zm10.165 13.289c-1.552-.304-5.87-1.723-5.057-6.101l4.217.822a2.594 2.594 0 0 0-.022.932c.145.883 1.032 1.236 1.819 1.39.689.136 1.788.11 1.988-.905.137-.709-.42-1.018-2.647-2.149-2.046-1.035-4.401-2.113-3.862-4.874.617-3.161 3.585-3.995 6.403-3.445 2.971.582 5.376 2.226 4.839 5.581l-3.988-.777c.179-.503.017-.892-.284-1.191-.295-.316-.756-.505-1.178-.586-.574-.114-1.543-.143-1.694.621-.113.995 1.801 1.587 3.632 2.501 1.829.916 3.57 2.19 3.081 4.702-.697 3.564-4.199 4.075-7.247 3.479Zm36.426 2.711-4.397-7.547h-.038l.121 7.617-4.061.063-.222-13.94 4.392-.07 4.181 7.394h.039l-.12-7.46 4.062-.065.223 13.942-4.18.066Zm19.812-1.472c-4.209.64-6.572-.877-7.152-4.698l-1.287-8.452 4.246-.645 1.142 7.507c.213 1.409.481 3.164 2.547 2.851 2.007-.306 1.74-2.062 1.524-3.471l-1.142-7.509 4.246-.646 1.288 8.453c.582 3.821-1.205 5.97-5.412 6.61Zm22.56-5.426-4.127 1.19-2.868-9.964-3.754 1.081-.987-3.434 11.631-3.348.99 3.432-3.754 1.081 2.869 9.962Zm19.922-7.448c-.472-.561-.831-1.194-1.169-1.834-.633-1.172-1.289-2.4-2.849-1.731l-2.098.905 1.922 4.467-3.946 1.696-5.509-12.803 7.512-3.234c2.244-.966 4.714-.561 5.755 1.86.571 1.326.563 2.989-.54 4.035 1.255-.05 2.429.849 3.257 2.384.326.604.999 2.119 1.611 2.557l-3.946 1.698Zm-4.043-8.313c-.346-.807-.996-1.081-2.503-.432l-1.847.793 1.097 2.547 2.06-.886c.736-.317 1.686-.875 1.193-2.022Zm15.157 2.785-6.824-12.157 3.746-2.102 6.826 12.157-3.748 2.102Zm17.766-11.191-3.513 2.472-5.965-8.481-3.193 2.245-2.058-2.922 9.904-6.964 2.057 2.924-3.194 2.246 5.962 8.48Zm9.787-7.651-9.129-10.536 3.244-2.812 9.131 10.536-3.246 2.812Zm14.771-13.675c-2.876 3.109-7.033 3.119-10.157.227-3.123-2.889-3.435-7.037-.558-10.145 2.876-3.11 7.036-3.117 10.157-.228 3.123 2.892 3.436 7.037.558 10.146Zm-3.474-6.993c-2.278-2.108-3.95-1.367-4.69-.564-.743.801-1.355 2.524.924 4.634 2.277 2.108 3.949 1.366 4.692.563.743-.802 1.352-2.525-.926-4.633Zm18.384-12.246-8.689-.861-.022.033 6.239 4.363-2.329 3.328-11.422-7.99 2.519-3.6 8.439.949.023-.033-6.112-4.275 2.328-3.326 11.42 7.989-2.394 3.423Zm-32.718-36.306c-5.105-8.497-3.276-16.652 1.491-25.203 1.899-3.405 10.807-29.283 11.057-30.216 1.235-4.61 3.983-13.76 4.487-18.222 2.147-19.007-1.352-24.332-9.025-37.62-7.242-12.544-19.22-22.885-31.173-31.245-3.6-2.518-7.442-4.688-11.204-6.96-11.987-7.237-26.162-11.775-36.721-14.666l-.008-.002c-10.589-2.776-25.133-5.933-39.133-5.66-4.395.087-8.807.046-13.184.426-14.531 1.263-30.075 4.23-42.619 11.472-13.288 7.672-18.982 10.534-26.626 28.068-1.794 4.117-10.7 45.822-10.758 49.72-.145 9.79-2.64 17.766-11.31 22.573-2.635 1.46-3.158 3.382-2.784 6.067.632 4.531-.88 13.83.516 18.181 1.513 4.723 6.204 10.119 8.141 12.277.849.944 4.236 4.151 5.083 4.831 1.36 1.089 13.634 5.916 15.43 6.397 1.657.444 19.316 7.269 16.994 15.936-1.464 5.465-2.578 6.353-2.859 12.101-.106 2.16-.069 12.207-.327 12.63-.18.291-1.248 4.207-1.348 4.534-.308.999-.56 2.032-.525 3.077.034 1.046.383 2.114 1.132 2.844.892.87 2.953 1.346 4.182 1.558.483.085.996.163 1.453-.014.278-.107 2.013-5.803 3.018-8.528.466-1.265.615-.651.678-.775.004.058.436-.219.218 1.151-.431 2.709-1.666 8.007-1.601 8.104.197.296.558.428.895.542.779.263 2.106.663 2.911.495.351-.075.681-.229 1.033-.309.77-.173 1.058-.107 1.849-.081.243.009.496-.003.712-.115.24-.126.403-.361.524-.603.225-.454.488-.925.468-1.432-.008-.193.969-4.826 1.692-7.318.43-1.486.76-1.308.765-1.467.004.257.173.226-.036 1.707-.381 2.689-1.251 7.542-1.254 8.175 0 .25-.164.491-.101.735.09.348.459.574.822.631.363.057.73-.014 1.094-.056.92-.106 1.354-.15 2.24.132.86.275 1.231.596 2.104.388.809-.193 1.369-.934 1.598-1.714.083-.281 1.042-4.27 1.743-6.353.504-1.497.821-1.254.827-1.466.08.009-.05.724-.069.854-.126.903-1.307 8.066-.787 8.817.517.745 1.469 1.024 2.347 1.251 1.205.312 1.382.35 2.586.662.361.094.729.188 1.102.157.358-.029.699-.172 1.007-.357.807-.486 2.688-5.932 3.78-8.612.502-1.229.63-.465.781-.88-.063.268.323-.079.062 1.288-.457 2.39-1.643 6.977-1.735 7.45-.07.367-.129.775.077 1.093.134.204.356.337.581.441 1.698.784 4.272.484 5.99 1.224.708.305 1.358.811 2.127.868.538.041 2.03-4.994 2.999-7.798.508-1.472.83-1.516.883-1.641.533-.28-.104 1.54-.21 2.003-.047.392-1.812 7.777-1.071 8.133.694.335 1.51.222 2.276.312 1.858.218 3.937 1.765 5.8 1.935.246.022.507.019.724-.092.337-.172.489-.555.612-.908.156-.45 1.312-4.838 2.107-7.124.471-1.35.732-1.01.815-1.279-.079.443.148.046-.037 1.397-.39 2.86-1.212 8.286-.76 9.103.174.314.397.609.693.813.307.213.674.316 1.034.415 1.198.332 1.371.388 2.569.719.874.243 1.839.478 2.658.091.509-.241 2.145-5.193 3.169-7.681.638-1.553.897-1.134.926-1.122-.096.178.059-.165-.238 1.307a472.262 472.262 0 0 1-1.446 6.749c-.192.79-.077 1.712.527 2.283.652.617 1.133.524 2.016.716.908.199 1.262.454 2.006 1.006.294.218.576.463.919.595.345.133.777.122 1.027-.135.177-.18.156-.47.28-.687.29-.504 1.928-5.224 2.898-7.643.674-1.678.774-1.306.927-1.56-.085.157.222.174-.209 1.933-.591 2.413-1.961 6.752-2.055 6.904-.272.428-.28.968-.311 1.473-.017.271.007.555.152.785.131.205.344.341.559.456.698.372.981.459 1.561.995.264.244.473.543.74.783.613.549 1.962.865 2.768 1.027.349.07.728.136 1.046-.022.103-.05 1.599-4.833 2.578-7.389.523-1.366.818-1.268.852-1.318-.008.144.442-.126.199 1.282-.491 2.861-1.834 8.396-1.65 8.623.308.382.79.571 1.251.739 1.171.43 3.194 1.049 4.402.742 1.013-.258 1.85-1.008 2.403-1.897.551-.888.85-1.908 1.084-2.927.076-.333 1.107-4.26 1.099-4.601-.012-.495 5.042-9.178 6.032-11.102 2.631-5.118 2.109-6.444 3.573-11.909 2.323-8.667 20.687-5.839 22.685-5.304 1.857.497 14.84 2.438 16.562 2.175 1.074-.165 5.61-1.249 6.817-1.643 2.757-.899 9.191-3.179 13.19-6.56 3.49-2.951 6.724-11.88 9.537-15.488 1.666-2.139 2.174-4.064.622-6.647Zm-102.122 10.996c-.636 1.392-2.558 2.853-4.046 3.049-2.16.283-4.248-.809-5.178-3.259-.656-1.723-1.574-3.344-2.319-5.035-1.707-3.866-2.216-3.976-5.498-1.473-1.47 1.121-3.098 2.035-4.527 3.201-2.03 1.656-4.385 1.557-6.114.233-1.191-.913-2.124-3.14-1.978-4.665 1.137-11.898 5.896-22.326 14.121-30.945 2.811-2.945 5.276-7.05 10.076-7.692a8.026 8.026 0 0 1 2.052-.01 8.004 8.004 0 0 1 1.774 1.035c3.329 2.565 4.29 8.64 4.96 11.397 2.814 11.578 1.641 23.29-3.323 34.164Zm4.519-48.556c.406-1.514 5.635-4.303 9.977-1.326 1.537 1.055 7.609 2.585 8.932 2.772 2.187.31 4.999.017 6.879-.634 7.263-2.514 7.181-3.757 14.001-7.245 8.334-4.263 16.091-9.641 24.273-14.223 3.456-1.937 7.267-3.416 11.093-4.46 2.751-.753 11.399.752 14.283.97 3.281.249 5.531 2.364 4.531 5.558-1.163 3.705-2.427 7.493-4.38 10.815-5.794 9.86-11.548 22-20.104 29.646-.88.787-4.93 3.03-6.09 3.385-5.922 1.817-11.288 3.586-17.349 3.499-.827-.012-4.678-3.719-5.608-4.415-7.318-5.469-12.105-7.135-20.65-10.247-1.476-.537-14.182-8.14-19.788-14.095Zm-13.817-3.702c-7.833 2.355-22.636 2.586-24.185 2.312-8.955-1.577-13.933-2.528-23.005-1.45-1.154.137-6.341 1.423-7.064 1.02-5.293-2.956-9.056-7.17-13.276-11.705-.827-.888-3.211-4.856-3.581-5.977-3.587-10.9-2.5-24.29-2.588-35.726-.029-3.853.769-7.766 1.615-11.556.73-3.266 3.737-3.973 6.702-2.547 2.607 1.253 10.849 4.273 12.857 6.3 2.789 2.817 5.35 6.004 7.376 9.41 4.794 8.059 8.822 16.594 13.909 24.453 4.162 6.431 3.469 7.467 8.502 13.276 1.303 1.504 3.591 3.163 5.64 3.988 1.24.5 7.263 2.21 9.122 2.065 5.25-.407 8.336 4.793 7.976 6.137ZM399.212 96.05l1.084-4.046-1.448-.388.198-.739 3.736 1.002-.198.738-1.448-.388-1.084 4.046-.84-.225Zm7.132 1.91.989-3.693-2.453 3.301-.358-.096-.48-4.087-.99 3.694-.839-.225 1.282-4.785 1.184.318.424 3.635 2.178-2.938 1.183.317-1.282 4.784-.838-.225Z"/></g><defs><clipPath id="a"><path fill="#fff" d="M0 0h483v314H0z"/></clipPath></defs></svg>