<svg width="26" height="9" fill="none" xmlns="http://www.w3.org/2000/svg"><path d="M12.016 1.272 10.4 8.004h.1V3.088c0-.8.677-1.458 1.515-1.458l1.505.002c.837.002 1.51.659 1.51 1.456v1.046c0 .801-.676 1.459-1.515 1.459h-2.127a.18.18 0 0 0-.182.18.18.18 0 0 0 .182.178h2.127c1.033 0 1.88-.811 1.88-1.817V3.088c0-1.002-.844-1.812-1.874-1.814l-1.505-.002ZM16.8 5.795c0 .102.086.179.183.179a.18.18 0 0 0 .182-.18v-3.67c0-.473-.398-.851-.879-.851h-.653a.18.18 0 0 0-.182.179.18.18 0 0 0 .182.179h.653c.287 0 .515.225.515.493v3.672Z" fill="#3D3D3D" stroke="#3D3D3D" stroke-width=".2"/><path d="m16.843.88-.296-.285a.177.177 0 0 1 0-.256l.296-.286a.193.193 0 0 1 .266 0l.296.286a.177.177 0 0 1 0 .256l-.297.286a.193.193 0 0 1-.266 0" fill="#32BCAD"/><path d="M19.899 1.673a1.454 1.454 0 0 0-1.015-.406h-.648a.18.18 0 0 0-.182.18.18.18 0 0 0 .182.179h.647c.289 0 .558.107.76.303l1.515 1.46.07-.072-.07.072a.69.69 0 0 0 .483.193.692.692 0 0 0 .481-.192l1.51-1.456c.202-.195.471-.303.759-.303h.527a.18.18 0 0 0 .182-.179.18.18 0 0 0-.182-.179h-.527c-.382 0-.743.144-1.014.406l-1.508 1.454h-.001a.332.332 0 0 1-.455 0l-1.514-1.46Z" fill="#3D3D3D" stroke="#3D3D3D" stroke-width=".2"/><path d="m22.123 3.819 1.509 1.455c.202.195.472.303.76.303h.526a.18.18 0 0 1 .182.179.18.18 0 0 1-.182.18h-.526c-.383 0-.744-.145-1.015-.406l-1.51-1.455a.332.332 0 0 0-.455 0l.711-.256Zm0 0a.7.7 0 0 0-.965 0l-1.514 1.46a1.089 1.089 0 0 1-.76.303h-.648a.18.18 0 0 0-.182.18.18.18 0 0 0 .182.179h.647c.383 0 .744-.144 1.015-.406l1.514-1.46.711-.256Z" fill="#3D3D3D" stroke="#3D3D3D" stroke-width=".2"/><path d="M6.459 6.694a1.233 1.233 0 0 1-.86-.342l-1.243-1.2a.242.242 0 0 0-.326 0L2.783 6.356c-.228.22-.537.344-.86.343H1.68l1.574 1.519a1.292 1.292 0 0 0 1.78 0L6.61 6.695l-.152-.001ZM1.923 2.457c.323 0 .633.123.86.343L4.03 4.003c.09.087.236.087.326 0L5.6 2.805a1.23 1.23 0 0 1 .86-.344h.15L5.03.94a1.29 1.29 0 0 0-1.78 0L1.68 2.457h.243Z" fill="#32BCAD"/><path d="m7.913 3.72-.953-.919a.193.193 0 0 1-.068.014H6.46a.872.872 0 0 0-.602.24L4.615 4.252a.612.612 0 0 1-.843 0L2.525 3.05a.871.871 0 0 0-.602-.24h-.532a.19.19 0 0 1-.064-.013l-.959.924a1.184 1.184 0 0 0 0 1.716l.957.923a.185.185 0 0 1 .064-.013h.534a.872.872 0 0 0 .602-.24l1.247-1.202a.627.627 0 0 1 .843 0l1.242 1.197c.16.154.376.24.602.24h.433a.18.18 0 0 1 .068.014l.953-.92a1.183 1.183 0 0 0 0-1.715Z" fill="#32BCAD"/></svg>