<svg width="24" height="17" fill="none" xmlns="http://www.w3.org/2000/svg"><path d="M24 8.056C24 3.834 18.684.392 12.127.392 5.569.392.255 3.834.255 8.056l-.001.45c0 4.478 4.645 8.106 11.871 8.106C19.397 16.612 24 12.986 24 8.506v-.45Z" fill="#28316B"/><path d="M23.545 8.052c0 3.98-5.11 7.207-11.416 7.207C5.824 15.26.714 12.032.714 8.052.714 4.07 5.824.843 12.129.843c6.306 0 11.416 3.228 11.416 7.209Z" fill="#50B4E9"/><path d="M8.339 5.778c-.007.012-.12.129-.047.221.18.228.737.357 1.3.233.336-.074.764-.411 1.18-.736.45-.354.899-.709 1.348-.849.476-.15.78-.086.983-.026.22.066.481.209.895.516.782.58 3.923 3.286 4.464 3.754.439-.195 2.38-1.022 5.02-1.594-.229-1.39-1.086-2.66-2.384-3.701-1.809.75-4.02 1.142-6.182.098-.01-.002-1.18-.55-2.336-.523-1.716.04-2.46.772-3.246 1.548l-.995 1.06Z" fill="#fff"/><path d="M18.335 9.185c-.036-.032-3.692-3.19-4.521-3.805-.479-.355-.745-.445-1.026-.48a1.422 1.422 0 0 0-.488.047c-.385.102-.889.435-1.336.784-.463.365-.9.707-1.305.798-.517.114-1.15-.021-1.439-.214a.632.632 0 0 1-.238-.258c-.107-.244.09-.439.121-.472l1.01-1.076c.117-.116.235-.232.357-.346-.326.043-.627.125-.92.205-.366.102-.717.197-1.074.197-.148 0-.944-.127-1.094-.168-.913-.248-1.715-.487-2.911-1.039C2.036 4.412 1.077 5.73.8 7.181c.205.054.536.151.676.181 3.246.713 4.257 1.447 4.441 1.6a1.083 1.083 0 0 1 1.684.098c.186-.146.442-.268.774-.268.15 0 .306.027.464.08.366.123.555.364.653.583.123-.056.274-.097.452-.096.175 0 .357.04.54.117.598.254.691.835.637 1.272a1.28 1.28 0 0 1 1.415 1.263c0 .218-.056.42-.153.6.193.107.685.35 1.117.296.345-.044.476-.16.523-.225.033-.045.067-.098.034-.136l-.914-1.004s-.152-.14-.102-.195c.052-.055.145.024.212.079.464.384 1.034.963 1.034.963.01.007.048.08.257.117.182.032.502.014.725-.166.056-.045.112-.102.159-.16l-.01.008c.234-.296-.027-.596-.027-.596l-1.069-1.184s-.153-.14-.101-.197c.046-.048.145.026.212.08.338.28.817.754 1.275 1.197.09.064.493.31 1.027-.035.323-.21.388-.467.38-.662a.758.758 0 0 0-.227-.44L15.43 8.9s-.155-.13-.1-.195c.044-.056.144.024.21.079a83.72 83.72 0 0 1 1.726 1.524.893.893 0 0 0 .99-.02c.193-.122.316-.305.326-.517.019-.37-.245-.587-.245-.587Z" fill="#fff"/><path d="M11.25 11.021c-.225-.002-.472.13-.506.111-.018-.011.015-.1.036-.153.02-.05.32-.936-.407-1.245-.557-.236-.897.03-1.014.15-.031.031-.045.028-.048-.011-.011-.16-.083-.592-.563-.736-.687-.207-1.128.266-1.24.436a.79.79 0 0 0-.786-.686.792.792 0 0 0-.797.786c0 .434.356.786.796.786a.793.793 0 0 0 .55-.22c.005.005.007.012.005.027-.034.194-.095.9.655 1.189.301.115.556.03.768-.118.063-.043.073-.025.064.034-.027.181.007.57.56.791.42.17.67-.003.832-.152.071-.064.09-.053.095.045a.992.992 0 0 0 1 .944.995.995 0 0 0 1.002-.988 1 1 0 0 0-1.001-.99Z" fill="#fff"/><path d="M11.25 12.929a.917.917 0 0 1-.927-.875c-.002-.043-.006-.154-.101-.154-.04 0-.075.023-.114.057-.111.102-.251.204-.456.204a.816.816 0 0 1-.3-.064c-.53-.212-.538-.572-.516-.716.005-.038.007-.078-.02-.109l-.032-.028H8.75a.157.157 0 0 0-.092.036.781.781 0 0 1-.45.157.694.694 0 0 1-.252-.048c-.697-.268-.642-.917-.608-1.113.005-.04-.005-.07-.03-.092l-.05-.04-.046.044a.721.721 0 0 1-.5.2.722.722 0 0 1-.726-.715c0-.395.327-.715.726-.715a.72.72 0 0 1 .715.625l.025.192.106-.162c.013-.02.306-.457.845-.457.101 0 .207.018.313.05.43.128.502.512.514.673.008.093.074.098.088.098.036 0 .064-.023.083-.044a.731.731 0 0 1 .534-.222c.127 0 .26.03.399.089.682.289.372 1.145.369 1.153-.059.142-.06.205-.006.24l.027.013h.02c.03 0 .068-.013.132-.034.093-.032.233-.08.364-.08.514.007.931.418.931.92a.926.926 0 0 1-.931.917Zm7.227-4.121c-1.126-.971-3.729-3.205-4.435-3.727-.402-.299-.677-.457-.918-.527a1.554 1.554 0 0 0-.451-.07c-.179 0-.371.032-.573.095-.457.142-.91.499-1.35.842l-.021.018c-.41.321-.832.654-1.151.724-.14.03-.284.047-.427.047-.358 0-.68-.102-.8-.255-.021-.025-.008-.065.038-.124l.007-.008.99-1.054c.776-.765 1.51-1.49 3.197-1.527a2.7 2.7 0 0 1 .084-.002c1.05.002 2.1.465 2.218.519.985.475 2.001.716 3.023.717 1.066 0 2.164-.261 3.319-.786-.13-.107-.264-.21-.401-.314-1.015.435-1.982.655-2.915.655-.953-.002-1.905-.228-2.829-.673-.049-.022-1.208-.563-2.415-.563h-.094c-1.417.034-2.216.53-2.753.965-.523.014-.973.138-1.373.248-.359.098-.667.183-.968.183-.124 0-.347-.01-.367-.011-.347-.011-2.092-.433-3.48-.952-.142.099-.279.2-.41.305 1.45.586 3.215 1.041 3.771 1.076.155.011.32.028.486.028.368 0 .735-.102 1.092-.2.21-.059.442-.122.685-.169l-.195.193-1.007 1.074c-.078.079-.251.29-.137.55a.691.691 0 0 0 .265.29c.24.159.669.266 1.068.266.15.001.295-.014.426-.044.422-.092.864-.44 1.333-.809.374-.293.905-.664 1.31-.774.115-.03.255-.049.367-.049.033 0 .065 0 .094.004.268.035.529.124.992.468.826.613 4.483 3.77 4.519 3.801.003.002.235.2.219.531-.009.184-.112.347-.292.46a.902.902 0 0 1-.48.148.786.786 0 0 1-.424-.122c-.014-.01-1.266-1.144-1.728-1.524-.072-.06-.143-.115-.215-.115a.122.122 0 0 0-.097.045c-.073.088.009.21.105.291l1.464 1.45c.002.002.182.17.201.393.012.24-.105.441-.347.598a.946.946 0 0 1-.519.17.754.754 0 0 1-.417-.126l-.21-.203c-.384-.373-.78-.759-1.07-.997-.07-.059-.146-.112-.218-.112a.128.128 0 0 0-.092.039c-.033.036-.057.101.026.21a.7.7 0 0 0 .074.08l1.068 1.184c.01.012.22.259.024.505l-.038.048a1.402 1.402 0 0 1-.099.094c-.182.148-.426.163-.522.163a.805.805 0 0 1-.144-.012c-.106-.018-.177-.047-.21-.087l-.013-.014c-.06-.059-.597-.602-1.043-.968-.058-.048-.132-.11-.207-.11a.127.127 0 0 0-.096.043c-.09.095.043.238.1.29l.911.99c0 .01-.013.03-.036.062-.032.045-.143.154-.472.194-.04.005-.081.007-.122.007-.34 0-.704-.163-.892-.262.087-.177.13-.372.13-.569 0-.74-.608-1.342-1.358-1.342l-.05.001c.026-.338-.022-.978-.688-1.259a1.434 1.434 0 0 0-.568-.123 1.16 1.16 0 0 0-.417.074 1.13 1.13 0 0 0-.665-.557 1.5 1.5 0 0 0-.487-.085c-.278 0-.532.08-.76.24a1.16 1.16 0 0 0-.894-.426c-.303 0-.594.12-.81.331-.284-.214-1.41-.92-4.42-1.594-.145-.032-.479-.126-.684-.186-.035.16-.06.323-.078.487l.665.156c3.074.674 4.091 1.375 4.263 1.507a1.142 1.142 0 0 0-.09.437 1.147 1.147 0 0 0 1.364 1.12c.096.46.402.81.87.99a1.099 1.099 0 0 0 .673.047c.086.215.28.485.714.66.153.06.305.09.453.09.121 0 .24-.02.352-.06a1.364 1.364 0 0 0 2.23.425c.219.12.682.336 1.15.337.06 0 .117-.002.174-.01.465-.058.68-.237.78-.376a.65.65 0 0 0 .048-.077c.11.03.23.056.369.056.253 0 .496-.085.743-.262.241-.173.414-.42.438-.63l.002-.009c.081.017.166.025.248.025.262 0 .519-.08.764-.239.473-.306.556-.706.549-.969.082.016.167.026.251.026.245 0 .486-.072.715-.217a1.03 1.03 0 0 0 .498-.799 1.061 1.061 0 0 0-.158-.645c.794-.338 2.607-.99 4.744-1.465a4.63 4.63 0 0 0-.067-.486 27.345 27.345 0 0 0-4.996 1.603Z" fill="#28316B"/></svg>