<svg width="22" height="10" fill="none" xmlns="http://www.w3.org/2000/svg"><path d="M6.04 0H3.76C2.751.05 1.927.473 1.69 1.346c-.123.456-.192.956-.289 1.428C.91 5.174.471 7.641 0 9.994h17.751c1.373 0 2.315-.303 2.57-1.44.118-.527.231-1.125.344-1.706C21.107 4.586 21.548 2.325 22 0H6.04Z" fill="#B82126"/><path d="M15.198 5.97c-.246.252-.937.324-.867-.277.06-.5.58-.606 1.145-.534-.042.273-.09.62-.278.812Zm-.778-1.947c-.023.138-.06.262-.088.394.281-.074 1.16-.3 1.244.093.028.13-.02.269-.056.371-.794-.079-1.44.06-1.61.65-.115.394.012.783.255.892.467.21 1.036-.03 1.233-.36-.02.115-.04.23-.033.372h.41c.005-.411.062-.744.123-1.113.052-.315.149-.627.133-.905-.035-.636-1.045-.411-1.61-.394Zm4.122 2.145c-.322.007-.482-.2-.489-.545-.013-.603.24-1.273.756-1.333.24-.028.413.03.588.092-.16.678-.103 1.77-.855 1.786Zm1.066-3.189c-.04.375-.095.735-.166 1.079-1.172-.387-1.89.512-1.878 1.623.003.215.038.428.167.58.222.261.857.324 1.178.104a.848.848 0 0 0 .166-.174c.031-.04.08-.146.09-.116-.018.118-.043.227-.045.36h.433c.084-1.25.342-2.318.533-3.456h-.477ZM7.377 5.982c-.256.283-.884.279-.933-.197-.022-.207.052-.423.088-.637.037-.217.064-.425.1-.615.252-.32.992-.36 1.067.174.065.463-.11 1.041-.322 1.275Zm.378-1.959c-.405-.159-.898.03-1.111.21 0 .009-.005.01-.012.01l.012-.01v-.001c.003-.078.03-.132.033-.209h-.411a83.556 83.556 0 0 1-.589 3.49h.478c.069-.446.115-.916.21-1.333.11.439.822.355 1.123.185.62-.35 1.099-2.016.267-2.342Zm2.266.835H8.899a.673.673 0 0 1 .633-.58c.344-.014.59.132.489.58Zm-.456-.881c-.345.027-.637.131-.844.359-.254.28-.46.898-.4 1.46.086.804 1.045.775 1.811.58.013-.14.046-.26.067-.394-.316.124-.864.296-1.19.082-.244-.162-.246-.572-.166-.928a26.45 26.45 0 0 1 1.567 0c.033-.252.126-.527.044-.777-.108-.329-.495-.414-.889-.382Zm-4.2.046c-.012.002-.011.018-.01.035a35.567 35.567 0 0 1-.4 2.377h.478c.114-.827.246-1.637.41-2.412h-.477Zm12.466.012c-.422-.22-.774.149-.911.37.04-.113.041-.265.078-.382h-.422a37.198 37.198 0 0 1-.412 2.412h.49c.003-.32.063-.556.11-.87.103-.67.253-1.403 1-1.183.025-.113.035-.241.067-.347Zm-5.366 1.831a1.264 1.264 0 0 1-.044-.463c.024-.335.141-.743.322-.928.249-.255.74-.213 1.133-.07.012-.137.039-.26.056-.394-.644-.11-1.254-.041-1.578.313-.317.347-.525 1.145-.378 1.647.172.587.943.619 1.567.394.027-.118.042-.25.066-.371-.34.185-.992.281-1.144-.128Zm-.267-1.843c-.423-.179-.756.123-.91.406.034-.126.049-.273.077-.406h-.422c-.103.835-.255 1.62-.4 2.412h.478c.067-.47.096-1.104.244-1.554.119-.36.43-.666.878-.499.006-.132.042-.233.055-.359ZM4.5 3.049a62.81 62.81 0 0 1-.222 1.368c-.495.006-1 .026-1.477-.011.09-.443.154-.913.244-1.357h-.533c-.191 1.13-.365 2.279-.578 3.386h.544c.086-.568.166-1.142.278-1.682.464-.012 1.02-.032 1.467.012-.092.561-.203 1.102-.29 1.67h.545c.175-1.147.36-2.284.578-3.386h-.556Zm1.356.51c.095-.068.218-.38.078-.51-.045-.041-.12-.053-.223-.035-.096.017-.151.051-.189.105-.06.085-.115.344-.022.44.091.094.295.044.356 0Z" fill="#fff"/></svg>