<svg width="240" height="300" viewBox="0 0 1180 352" fill="none" xmlns="http://www.w3.org/2000/svg"><path d="M146.766 157.056c1.829 2.372 3.201 5.043 4.116 8.012.916 2.967 1.374 6.131 1.374 9.496 0 7.415-2.053 13.746-6.159 18.986-4.552 5.837-10.684 8.755-18.401 8.755H76.129v-18.916h48.229c2.226 0 4.006-.865 5.342-2.595 1.187-1.532 1.78-3.438 1.78-5.713 0-2.226-.569-4.053-1.707-5.489-1.286-1.631-3.092-2.447-5.415-2.447H76.129v-20.178h48.229c2.274 0 4.03-.774 5.268-2.324 1.236-1.552 1.854-3.386 1.854-5.503 0-2.263-.593-4.158-1.78-5.683-1.336-1.724-3.116-2.587-5.342-2.587H76.129v-19.137h51.567c7.668 0 13.824 2.964 18.476 8.887 4.204 5.382 6.307 11.8 6.307 19.255 0 3.308-.483 6.443-1.447 9.405-.966 2.962-2.388 5.555-4.266 7.776Zm89.703 45.248h-36.135c-11.424 0-20.478-2.866-27.155-8.598-5.244-4.496-8.953-10.624-11.13-18.38-1.435-5.091-2.152-10.624-2.152-16.603 0-1.382.013-2.359.038-2.929a8.735 8.735 0 0 1 .186-1.519v-42.542h20.032v42.534c0 7.657 1.608 14.102 4.823 19.339 3.711 6.028 8.829 9.041 15.358 9.041h36.135v19.657Zm97.793.001h-21.443l-23.67-69.728c-.148-.741-.667-1.113-1.557-1.113-.842 0-1.46.372-1.856 1.113l-23.149 69.728h-21.739c1.234-4.303 3.894-12.857 7.976-25.666a2196.41 2196.41 0 0 1 11.909-36.347c4.302-12.708 6.923-19.779 7.864-21.216 1.781-2.522 4.378-4.449 7.791-5.785 3.413-1.335 7.122-2.002 11.13-2.002 4.006 0 7.704.667 11.092 2.002 3.388 1.336 5.972 3.263 7.755 5.785 1.085 1.486 3.757 8.508 8.012 21.066 2.621 7.715 6.528 19.832 11.723 36.349 3.165 10.04 5.886 18.643 8.162 25.814Zm74.273-.001H364.24c-10.635 0-19.044-4.621-25.227-13.86-5.54-8.301-8.31-18.53-8.31-30.685 0-12.352 2.819-22.876 8.458-31.573 6.233-9.636 14.591-14.453 25.079-14.453h44.295v19.137h-40.956c-4.947 0-8.829 2.618-11.649 7.852-2.523 4.693-3.785 10.495-3.785 17.408 0 7.11 1.31 13.186 3.933 18.221 2.868 5.53 6.702 8.296 11.501 8.296h40.956v19.657Zm85.773 1.982-57.429-22.678v20.695h-20.033V111.66h20.033v22.102l57.429-22.791v21.735l-54.387 23.143v3.413l54.387 23.662v21.362Zm258.421-73.416h-48.228c-2.177 0-3.894.825-5.158 2.474-1.261 1.649-1.89 3.582-1.89 5.796 0 2.166.604 4.011 1.817 5.539 1.212 1.527 2.955 2.288 5.231 2.288h28.417c7.666 0 13.726 2.868 18.178 8.604 4.006 5.144 6.01 11.498 6.01 19.065 0 7.517-2.004 13.871-6.01 19.062-4.452 5.738-10.512 8.606-18.178 8.606h-51.717v-19.288h48.451c2.078 0 3.711-.852 4.898-2.557 1.188-1.708 1.783-3.674 1.783-5.898 0-2.225-.57-4.117-1.709-5.673-1.137-1.559-2.793-2.338-4.972-2.338h-28.49c-7.717 0-13.826-2.84-18.328-8.519-4.057-5.086-6.084-11.384-6.084-18.889 0-7.407 2.027-13.679 6.084-18.817 4.552-5.727 10.659-8.592 18.328-8.592h51.567v19.137Zm85.772 73.416-57.429-22.678v20.695h-20.033V111.66h20.033v22.102l57.429-22.791v21.735l-54.387 23.143v3.413l54.387 23.662v21.362Zm84.216-34.446c0 10.475-4.057 18.826-12.17 25.051-7.32 5.633-16.274 8.452-26.857 8.452-10.29 0-18.946-2.768-25.971-8.303-7.865-6.175-11.797-14.575-11.797-25.2v-58.108h19.662v54.833c0 4.743 2.029 8.547 6.086 11.412 3.71 2.62 8.185 3.928 13.43 3.928 5.045 0 9.298-1.259 12.76-3.78 3.859-2.815 5.787-6.667 5.787-11.56v-54.833h19.07v58.108Zm84.733 32.464h-36.134c-11.427 0-20.479-2.866-27.156-8.598-5.245-4.496-8.954-10.624-11.131-18.38-1.434-5.091-2.151-10.624-2.151-16.603 0-1.382.012-2.359.036-2.929a8.634 8.634 0 0 1 .187-1.519v-42.542h20.033v42.534c0 7.657 1.607 14.102 4.823 19.339 3.71 6.028 8.83 9.041 15.359 9.041h36.134v19.657Zm84.66 0h-36.13c-11.43 0-20.48-2.866-27.16-8.598-5.25-4.496-8.95-10.624-11.13-18.38-1.44-5.091-2.15-10.624-2.15-16.603 0-1.382.01-2.359.03-2.929.03-.567.09-1.074.19-1.519v-42.542h20.03v42.534c0 7.657 1.61 14.102 4.83 19.339 3.71 6.028 8.83 9.041 15.36 9.041h36.13v19.657ZM79.236 257.457h5.502v6.201h5.151v-6.201h5.501v17.852h-5.5v-7.076h-5.152v7.076h-5.502v-17.852Zm50.355 0h14.78v4.577h-9.278v2.226h8.428v4.248h-8.428v2.224h9.553v4.577h-15.055v-17.852Zm53.91 0h5.377l6.503 17.852h-5.702l-.75-2.55h-5.678l-.8 2.55h-5.526l6.576-17.852Zm4.326 11.476-1.6-5.499h-.05l-1.725 5.499h3.375Zm49.031 6.376h-6.152l-5.327-17.852h5.552l2.926 10.826h.05l2.875-10.826h5.653l-5.577 17.852Zm42.03-6.575-6.276-11.277h6.077l2.976 6.577 3.1-6.577h6.028l-6.402 11.277v6.575h-5.503v-6.575Zm88.064.575c0 .45.076.85.199 1.176.401 1.074 1.602 1.3 2.627 1.3.9 0 2.276-.301 2.276-1.626 0-.926-.776-1.175-3.851-2.051-2.826-.799-6.053-1.573-6.053-5.173 0-4.125 3.526-5.901 7.203-5.901 3.877 0 7.302 1.474 7.453 5.825h-5.202c.099-.673-.199-1.125-.651-1.423-.45-.328-1.076-.451-1.625-.451-.75 0-1.976.199-1.976 1.201.101 1.273 2.652 1.548 5.178 2.248 2.525.7 5.026 1.875 5.026 5.15 0 4.651-4.276 6.152-8.252 6.152-2.027 0-7.803-.725-7.854-6.427h5.502Zm43.681-11.852h9.203c4.851 0 6.552 3.551 6.552 6.101 0 4.326-2.902 6.352-7.003 6.352h-3.25v5.399h-5.502v-17.852Zm5.502 8.201h2.126c1.425 0 2.925-.1 2.925-1.899 0-1.626-1.249-1.725-2.601-1.725h-2.45v3.624Zm52.008-8.624c5.428 0 9.053 3.899 9.053 9.349 0 5.451-3.625 9.353-9.053 9.353-5.427 0-9.054-3.902-9.054-9.353 0-5.45 3.627-9.349 9.054-9.349Zm0 14.25c1.401 0 3.551-.926 3.551-4.901 0-3.973-2.15-4.899-3.551-4.899-1.399 0-3.551.926-3.551 4.899 0 3.975 2.152 4.901 3.551 4.901Zm42.753-13.827h10.48c3.126 0 5.827 1.727 5.827 5.103 0 1.848-.851 3.798-2.676 4.474 1.501.575 2.425 2.226 2.626 4.45.075.876.099 3 .6 3.825h-5.502c-.275-.901-.374-1.824-.45-2.75-.15-1.7-.3-3.476-2.477-3.476h-2.925v6.226h-5.503v-17.852Zm5.503 7.801h2.876c1.025 0 2.425-.175 2.425-1.776 0-1.125-.626-1.774-2.725-1.774h-2.576v3.55Zm48.107-3.224h-5.001v-4.577h15.504v4.577h-5.001v13.275h-5.502v-13.275Zm48.282 7.275c0 .45.076.85.201 1.176.4 1.074 1.602 1.3 2.625 1.3.901 0 2.277-.301 2.277-1.626 0-.926-.777-1.175-3.851-2.051-2.826-.799-6.054-1.573-6.054-5.173 0-4.125 3.528-5.901 7.203-5.901 3.876 0 7.302 1.474 7.453 5.825h-5.202c.1-.673-.2-1.125-.649-1.423-.452-.328-1.078-.451-1.625-.451-.752 0-1.976.199-1.976 1.201.099 1.273 2.65 1.548 5.176 2.248 2.525.7 5.026 1.875 5.026 5.15 0 4.651-4.276 6.152-8.254 6.152-2.024 0-7.801-.725-7.851-6.427h5.501Zm83.41-11.852h5.628l5.201 9.552h.051v-9.552h5.201v17.852h-5.353l-5.476-9.751h-.051v9.751h-5.201v-17.852Zm66.538 10.953c0 4.948-2.674 7.326-8.127 7.326-5.451 0-8.153-2.378-8.153-7.326v-10.953h5.504v9.728c0 1.824 0 4.099 2.674 4.099 2.602 0 2.602-2.275 2.602-4.099v-9.728h5.5v10.953Zm38.329-6.376h-5.003v-4.577h15.505v4.577h-5.002v13.275h-5.5v-13.275Zm43.906-4.577h10.478c3.127 0 5.827 1.727 5.827 5.103 0 1.848-.849 3.798-2.675 4.474 1.501.575 2.426 2.226 2.627 4.45.076.876.099 3 .6 3.825h-5.503c-.275-.901-.374-1.824-.45-2.75-.149-1.7-.299-3.476-2.475-3.476h-2.926v6.226h-5.503v-17.852Zm5.503 7.801h2.875c1.025 0 2.426-.175 2.426-1.776 0-1.125-.625-1.774-2.726-1.774h-2.575v3.55Zm49.881-7.801h-5.502v17.852h5.502v-17.852Zm38.38 4.577h-5.003v-4.577h15.506v4.577h-5.002v13.275h-5.501v-13.275Zm49.409-4.577h-5.502v17.852h5.502v-17.852Zm42.736-.423c5.42 0 9.05 3.899 9.05 9.349 0 5.451-3.63 9.353-9.05 9.353-5.43 0-9.06-3.902-9.06-9.353 0-5.45 3.63-9.349 9.06-9.349Zm0 14.25c1.4 0 3.55-.926 3.55-4.901 0-3.973-2.15-4.899-3.55-4.899s-3.56.926-3.56 4.899c0 3.975 2.16 4.901 3.56 4.901Zm42.77-13.827h5.63l5.2 9.552h.05v-9.552h5.2v17.852h-5.35l-5.47-9.751h-.05v9.751h-5.21v-17.852Zm-404.937-81.958c-5.059-4.884-5.303-10.807-3.605-17.54.675-2.68 2.028-22.042 2.028-22.729 0-3.384.203-10.157-.272-13.305-2.018-13.415-5.393-16.422-13.09-24.117-7.266-7.263-17.374-12.15-27.098-15.682-2.93-1.062-5.962-1.845-8.957-2.71-9.542-2.758-20.089-3.265-27.855-3.308h-.005c-7.767.043-18.313.549-27.856 3.306-2.994.867-6.027 1.648-8.956 2.712-9.725 3.532-19.831 8.419-27.097 15.682-7.699 7.695-11.073 10.702-13.092 24.117-.475 3.148 1.081 33.354 1.756 36.034 1.698 6.733 1.454 12.656-3.605 17.54-1.538 1.485-1.542 2.897-.793 4.668 1.264 2.988 1.937 9.635 3.692 12.36 1.905 2.957 6.108 5.794 7.832 6.916.755.491 3.665 2.066 4.37 2.376 1.132.497 10.43 1.55 11.748 1.55 1.218 0 14.572 1.435 14.572 7.797 0 4.013-.601 4.826.262 8.816.323 1.499 2.194 8.375 2.095 8.711-.07.233-.083 3.112-.093 3.355-.026.741-.009 1.495.206 2.204.216.71.651 1.377 1.299 1.74.771.433 2.271.38 3.152.301.346-.031.712-.073.992-.278.172-.124.313-4.345.503-6.396.087-.952.302-.558.323-.655.013.039.257-.229.359.747.203 1.936.33 5.793.392 5.847.188.167.46.191.712.208.582.036 1.566.067 2.086-.196.226-.116.426-.282.651-.401.496-.26.706-.268 1.253-.395.168-.039.339-.094.466-.211.142-.128.211-.319.249-.509.071-.352.165-.723.058-1.066-.042-.132-.223-3.484-.185-5.324.022-1.096.28-1.035.256-1.145.049.174.159.123.288 1.176.232 1.913.527 5.395.641 5.83.046.172-.021.366.066.523.125.222.42.309.679.281.26-.028.497-.145.74-.24.611-.241.899-.351 1.559-.32.641.03.952.183 1.512-.12.519-.282.768-.891.781-1.468.005-.208-.07-3.117.028-4.672.07-1.117.333-1.01.297-1.157.058-.008.099.506.11.598.08.643.585 5.766 1.08 6.185.491.415 1.195.431 1.839.427.882-.009 1.01-.015 1.892-.022.265-.002.535-.005.784-.094.241-.085.448-.247.625-.43.464-.481.753-4.557 1.01-6.593.117-.934.344-.435.372-.748.007.196.206-.112.279.872.127 1.721.155 5.08.179 5.423.02.264.053.554.254.733.129.117.307.167.48.196 1.306.226 3.015-.453 4.329-.26.54.079 1.079.305 1.616.204.376-.071.475-3.795.623-5.893.078-1.102.29-1.191.305-1.286.313-.29.211 1.074.222 1.41.042.278.187 5.661.76 5.769.537.101 1.076-.125 1.618-.204 1.312-.193 3.021.486 4.329.26.173-.029.35-.079.478-.196.201-.179.234-.469.254-.733.025-.338.01-3.555.137-5.268.074-1.012.314-.826.321-1.027.028.32.11.005.232.966.258 2.031.691 5.899 1.151 6.375.178.183.384.345.624.43.249.089.519.092.785.094.881.007 1.01.013 1.893.022.643.004 1.346-.012 1.837-.427.305-.259.518-3.951.762-5.844.151-1.181.407-.942.428-.939-.033.14.012-.122.076.939.099 1.584.244 4.677.249 4.89.013.577.262 1.186.781 1.468.56.303.873.15 1.513.12.659-.031.947.079 1.559.32.242.095.481.212.739.24.261.028.554-.059.679-.281.088-.157.02-.351.066-.523.106-.398.361-3.932.582-5.767.153-1.274.29-1.037.349-1.239-.029.123.183.079.211 1.362.038 1.761-.104 4.987-.14 5.107-.109.343-.015.714.056 1.066.04.19.107.381.249.509.127.117.3.172.468.211.546.127.755.135 1.252.395.225.119.424.285.651.401.519.263 1.503.232 2.085.196.252-.017.524-.041.714-.208.061-.052.207-3.604.408-5.535.107-1.031.328-1.018.341-1.059.022.1.28-.167.373.841.189 2.05.285 6.089.453 6.21.28.205.646.247.994.278.88.079 2.381.132 3.152-.301.646-.363 1.081-1.03 1.297-1.74.216-.709.232-1.463.206-2.204-.01-.243-.023-3.122-.092-3.355-.099-.336 1.771-7.212 2.096-8.711.862-3.99.262-4.803.262-8.816 0-6.362 13.102-7.797 14.57-7.797 1.363 0 10.616-1.053 11.748-1.55.705-.31 3.616-1.885 4.37-2.376 1.724-1.122 5.714-3.865 7.834-6.916 1.849-2.662 2.426-9.372 3.69-12.36.75-1.771.745-3.183-.793-4.668Zm-67.96 26.277c-.18 1.072-1.228 2.427-2.212 2.834-1.428.589-3.06.225-4.147-1.284-.765-1.059-1.693-2.001-2.513-3.023-1.879-2.334-2.25-2.316-4.039 0-.801 1.038-1.749 1.962-2.513 3.023-1.088 1.508-2.719 1.873-4.146 1.284-.984-.407-2.034-1.762-2.214-2.834-1.405-8.359-.059-16.376 3.995-23.791 1.386-2.533 2.32-5.799 5.492-7.12a5.765 5.765 0 0 1 1.404-.382c.475.066.949.193 1.406.382 2.752 1.147 4.527 5.132 5.492 6.898 4.054 7.415 5.4 15.654 3.995 24.013Zm-5.817-34.092c0-1.11 3.07-3.982 6.591-2.74 1.248.44 5.689.376 6.631.261 1.556-.19 3.428-.907 4.596-1.697 4.516-3.056 4.232-3.893 8.265-7.534 4.928-4.451 9.256-9.558 14.021-14.199 2.012-1.962 4.352-3.674 6.781-5.092 1.749-1.02 7.95-1.577 9.967-1.956 2.294-.433 4.225.603 4.125 2.974-.116 2.753-.287 5.58-1.016 8.214-2.158 7.819-3.872 17.191-8.333 23.998-.458.702-2.821 2.982-3.551 3.438-3.724 2.331-7.076 4.529-11.245 5.582-.57.143-3.889-1.691-4.654-1.995-6.018-2.404-9.605-2.666-16.031-3.229-1.11-.098-11.213-2.974-16.147-6.025Zm-10.15 0c-4.933 3.051-15.035 5.927-16.146 6.025-6.426.563-10.012.825-16.032 3.229-.764.304-4.083 2.138-4.652 1.995-4.171-1.053-7.522-3.251-11.247-5.582-.73-.456-3.093-2.736-3.551-3.438-4.459-6.807-6.173-16.179-8.333-23.998-.729-2.634-.9-5.461-1.015-8.214-.099-2.371 1.831-3.407 4.124-2.974 2.017.379 8.218.936 9.967 1.956 2.429 1.418 4.769 3.13 6.782 5.092 4.765 4.641 9.094 9.748 14.021 14.199 4.034 3.641 3.749 4.478 8.264 7.534 1.168.79 3.042 1.507 4.597 1.697.941.115 5.382.179 6.63-.261 3.521-1.242 6.591 1.753 6.591 2.74Zm509.644 20.652v-4.746h-1.7v-.867h4.39v.867h-1.7v4.746h-.99Zm8.37 0v-4.334l-1.72 4.334h-.42l-1.72-4.334v4.334h-.99v-5.613h1.39l1.53 3.854 1.53-3.854h1.39v5.613h-.99Z" fill="#fff"/></svg>