<svg width="245" height="72" fill="none" xmlns="http://www.w3.org/2000/svg"><path d="M30.473 32.125c.38.485.664 1.032.854 1.639.19.607.285 1.254.285 1.942 0 1.517-.426 2.812-1.278 3.884-.945 1.194-2.218 1.79-3.82 1.79H15.805v-3.869H25.82c.462 0 .832-.177 1.11-.53.246-.314.369-.704.369-1.17 0-.454-.118-.828-.355-1.122-.267-.334-.642-.5-1.124-.5H15.806V30.06H25.82c.472 0 .837-.158 1.094-.475.256-.317.385-.692.385-1.126 0-.463-.123-.85-.37-1.162a1.34 1.34 0 0 0-1.109-.53H15.806v-3.913h10.707c1.592 0 2.87.606 3.836 1.817.873 1.101 1.31 2.414 1.31 3.939 0 .676-.1 1.318-.3 1.924a4.659 4.659 0 0 1-.887 1.59ZM49.097 41.38h-7.502c-2.372 0-4.252-.586-5.638-1.758-1.09-.92-1.86-2.173-2.311-3.76-.298-1.041-.447-2.173-.447-3.396 0-.283.003-.483.008-.6a1.75 1.75 0 0 1 .038-.31v-8.701h4.16v8.7c0 1.566.334 2.884 1.001 3.955.77 1.233 1.833 1.85 3.189 1.85h7.502v4.02ZM69.402 41.38H64.95l-4.915-14.262c-.03-.152-.138-.228-.323-.228a.409.409 0 0 0-.385.228L54.52 41.38h-4.514c.257-.88.809-2.63 1.657-5.25.847-2.619 1.67-5.097 2.472-7.434.894-2.6 1.438-4.046 1.633-4.34.37-.515.909-.91 1.618-1.183a6.374 6.374 0 0 1 2.31-.41c.832 0 1.6.137 2.303.41.704.273 1.24.668 1.61 1.184.226.303.78 1.74 1.664 4.309.544 1.578 1.356 4.056 2.434 7.434a3045.17 3045.17 0 0 0 1.695 5.28ZM84.823 41.38h-9.197c-2.208 0-3.954-.945-5.238-2.835-1.15-1.698-1.725-3.79-1.725-6.276 0-2.527.585-4.68 1.756-6.458 1.294-1.971 3.03-2.956 5.207-2.956h9.197v3.914h-8.504c-1.027 0-1.833.535-2.418 1.606-.524.96-.786 2.147-.786 3.56 0 1.455.272 2.698.817 3.728.595 1.13 1.391 1.697 2.387 1.697h8.504v4.02ZM102.632 41.785l-11.924-4.638v4.233h-4.16V22.84h4.16v4.52l11.924-4.662v4.446l-11.293 4.734v.698l11.293 4.84v4.37ZM156.287 26.769h-10.013c-.452 0-.809.169-1.071.506a1.877 1.877 0 0 0-.393 1.185c0 .444.126.82.378 1.133.251.313.613.468 1.086.468h5.9c1.591 0 2.85.587 3.774 1.76.832 1.052 1.248 2.352 1.248 3.9 0 1.538-.416 2.837-1.248 3.899-.924 1.174-2.183 1.76-3.774 1.76h-10.738v-3.945h10.06c.431 0 .77-.174 1.017-.523.246-.35.37-.751.37-1.206 0-.456-.119-.842-.355-1.16-.236-.32-.58-.479-1.032-.479h-5.916c-1.602 0-2.87-.581-3.805-1.742-.842-1.04-1.263-2.329-1.263-3.864 0-1.515.421-2.798 1.263-3.85.945-1.17 2.213-1.756 3.805-1.756h10.707v3.914ZM174.096 41.785l-11.924-4.638v4.233h-4.16V22.84h4.16v4.52l11.924-4.662v4.446l-11.293 4.734v.698l11.293 4.84v4.37ZM191.581 34.74c0 2.142-.842 3.85-2.527 5.124-1.52 1.152-3.379 1.729-5.576 1.729-2.136 0-3.934-.567-5.392-1.699-1.633-1.263-2.45-2.981-2.45-5.154V22.854h4.083V34.07c0 .97.421 1.748 1.263 2.334.771.536 1.7.803 2.789.803 1.047 0 1.93-.257 2.649-.773.801-.575 1.202-1.363 1.202-2.364V22.854h3.959V34.74ZM209.174 41.38h-7.503c-2.372 0-4.251-.586-5.638-1.758-1.089-.92-1.859-2.173-2.311-3.76-.298-1.041-.446-2.173-.446-3.396 0-.283.002-.483.007-.6a1.72 1.72 0 0 1 .039-.31v-8.701h4.159v8.7c0 1.566.334 2.884 1.002 3.955.77 1.233 1.833 1.85 3.188 1.85h7.503v4.02ZM226.752 41.38h-7.503c-2.372 0-4.252-.586-5.638-1.758-1.089-.92-1.859-2.173-2.311-3.76-.298-1.041-.447-2.173-.447-3.396 0-.283.003-.483.008-.6.005-.115.018-.219.038-.31v-8.701h4.16v8.7c0 1.566.334 2.884 1.001 3.955.771 1.233 1.834 1.85 3.189 1.85h7.503v4.02ZM16.451 52.662h1.143v1.268h1.07v-1.268h1.141v3.651h-1.142v-1.447h-1.07v1.447h-1.142v-3.651ZM26.907 52.662h3.068v.936H28.05v.455h1.75v.869h-1.75v.455h1.983v.936h-3.125v-3.651ZM38.1 52.662h1.116l1.35 3.651h-1.184l-.155-.522h-1.18l-.165.522h-1.148l1.366-3.651Zm.898 2.347-.332-1.125h-.01l-.359 1.125h.7ZM49.178 56.313h-1.277l-1.106-3.651h1.152l.608 2.214h.01l.597-2.214h1.174l-1.158 3.651ZM57.905 54.968l-1.303-2.306h1.261l.618 1.345.644-1.345h1.252l-1.33 2.306v1.345h-1.142v-1.345ZM76.19 55.086c0 .092.015.174.04.24.084.22.333.266.546.266.187 0 .473-.061.473-.332 0-.19-.162-.24-.8-.42-.587-.163-1.257-.322-1.257-1.058 0-.843.732-1.207 1.496-1.207.805 0 1.516.302 1.547 1.192h-1.08a.277.277 0 0 0-.135-.291.594.594 0 0 0-.337-.093c-.156 0-.41.041-.41.246.02.26.55.317 1.074.46.525.143 1.044.383 1.044 1.053 0 .951-.888 1.258-1.714 1.258-.42 0-1.62-.148-1.63-1.314h1.142ZM85.258 52.662h1.911c1.008 0 1.36.726 1.36 1.247 0 .885-.602 1.3-1.453 1.3H86.4v1.104h-1.142v-3.651Zm1.143 1.677h.441c.296 0 .608-.02.608-.389 0-.332-.26-.352-.54-.352h-.51v.741ZM97.2 52.575c1.126 0 1.879.798 1.879 1.912 0 1.116-.753 1.913-1.88 1.913-1.126 0-1.88-.797-1.88-1.913 0-1.114.754-1.912 1.88-1.912Zm0 2.915c.29 0 .736-.19.736-1.003 0-.812-.446-1.002-.737-1.002-.29 0-.737.19-.737 1.002 0 .814.447 1.003.737 1.003ZM106.076 52.662h2.176c.649 0 1.21.353 1.21 1.043 0 .378-.177.777-.556.915.312.118.504.456.545.91.016.18.021.614.125.783h-1.143a2.631 2.631 0 0 1-.093-.562c-.031-.348-.062-.711-.514-.711h-.608v1.273h-1.142v-3.651Zm1.142 1.595h.597c.213 0 .504-.035.504-.363 0-.23-.13-.363-.566-.363h-.535v.726ZM117.207 53.598h-1.039v-.936h3.22v.936h-1.039v2.715h-1.142v-2.715ZM127.231 55.086c0 .092.016.174.042.24.083.22.333.266.545.266.187 0 .473-.061.473-.332 0-.19-.161-.24-.8-.42-.586-.163-1.257-.322-1.257-1.058 0-.843.733-1.207 1.496-1.207.805 0 1.516.302 1.547 1.192h-1.08a.276.276 0 0 0-.135-.291.592.592 0 0 0-.337-.093c-.156 0-.41.041-.41.246.02.26.55.317 1.075.46.524.143 1.043.383 1.043 1.053 0 .951-.888 1.258-1.714 1.258-.42 0-1.619-.148-1.63-1.314h1.142ZM144.55 52.662h1.168l1.08 1.953h.011v-1.953h1.079v3.651h-1.111l-1.137-1.995h-.011v1.995h-1.079v-3.651ZM158.365 54.902c0 1.012-.556 1.498-1.688 1.498-1.131 0-1.693-.486-1.693-1.498v-2.24h1.143v1.99c0 .373 0 .838.555.838.541 0 .541-.465.541-.839v-1.99h1.142v2.24ZM166.323 53.598h-1.039v-.936h3.219v.936h-1.038v2.715h-1.142v-2.715ZM175.439 52.662h2.175c.65 0 1.21.353 1.21 1.043 0 .378-.176.777-.555.915.312.118.504.456.545.91.016.18.021.614.125.783h-1.143a2.631 2.631 0 0 1-.093-.562c-.031-.348-.062-.711-.514-.711h-.608v1.273h-1.142v-3.651Zm1.142 1.595h.597c.213 0 .504-.035.504-.363 0-.23-.13-.363-.566-.363h-.535v.726ZM186.938 52.662h-1.142v3.651h1.142v-3.651ZM194.907 53.598h-1.039v-.936h3.219v.936h-1.038v2.715h-1.142v-2.715ZM205.165 52.662h-1.142v3.651h1.142v-3.651ZM214.038 52.575c1.126 0 1.879.798 1.879 1.912 0 1.116-.753 1.913-1.879 1.913-1.127 0-1.88-.797-1.88-1.913 0-1.114.753-1.912 1.88-1.912Zm0 2.915c.291 0 .737-.19.737-1.003 0-.812-.446-1.002-.737-1.002s-.738.19-.738 1.002c0 .814.447 1.003.738 1.003ZM222.92 52.662h1.168l1.08 1.953h.01v-1.953h1.08v3.651h-1.111l-1.137-1.995H224v1.995h-1.08v-3.651ZM138.843 35.897c-1.05-.999-1.101-2.21-.749-3.587.141-.549.422-4.51.422-4.65 0-.692.042-2.077-.057-2.721-.419-2.744-1.12-3.359-2.718-4.933-1.508-1.486-3.607-2.485-5.626-3.208-.608-.217-1.238-.377-1.86-.554-1.981-.564-4.171-.668-5.783-.677h-.001c-1.613.01-3.803.113-5.784.677-.622.177-1.251.337-1.86.554-2.019.723-4.117 1.722-5.625 3.208-1.599 1.574-2.3 2.189-2.719 4.933-.098.644.225 6.822.365 7.37.352 1.378.302 2.59-.749 3.588-.319.304-.32.593-.164.955.262.611.402 1.971.766 2.528.396.605 1.268 1.185 1.626 1.415.157.1.761.423.908.486.235.102 2.165.317 2.439.317.253 0 3.025.294 3.025 1.595 0 .82-.124.987.055 1.803.067.307.455 1.713.435 1.782-.015.047-.017.637-.019.686-.006.152-.002.306.042.451a.605.605 0 0 0 .27.356c.16.088.471.078.655.062a.405.405 0 0 0 .205-.057c.036-.026.065-.89.105-1.309.018-.194.062-.114.067-.134.003.008.053-.047.074.153.043.396.069 1.185.082 1.196.039.034.095.04.148.043.12.007.325.014.433-.04.047-.024.088-.058.135-.082.103-.054.146-.055.26-.081a.21.21 0 0 0 .097-.043.19.19 0 0 0 .052-.105c.014-.072.034-.147.012-.218a12.657 12.657 0 0 1-.039-1.089c.005-.224.058-.211.053-.234.01.036.033.026.06.24.048.392.11 1.104.133 1.193.01.035-.004.075.014.107.026.046.087.064.141.058.054-.006.103-.03.153-.05a.655.655 0 0 1 .324-.065c.133.006.198.038.314-.024.108-.058.16-.183.162-.3.001-.043-.014-.638.006-.956.015-.229.069-.207.062-.237.012-.002.02.104.023.123.016.13.121 1.179.224 1.265.102.084.248.088.382.087l.392-.005a.495.495 0 0 0 .163-.019.35.35 0 0 0 .13-.088c.096-.098.156-.932.21-1.348.024-.191.071-.09.077-.153.001.04.043-.023.058.178.026.352.032 1.04.037 1.11.004.053.011.113.053.15a.195.195 0 0 0 .099.04c.272.045.627-.093.899-.054.112.016.224.062.336.042.078-.015.098-.777.129-1.206.016-.225.06-.243.064-.263.065-.059.043.22.046.289.008.057.038 1.158.157 1.18.112.02.224-.026.336-.042.273-.04.628.1.899.053a.192.192 0 0 0 .099-.04c.042-.036.049-.096.053-.15.005-.069.002-.727.029-1.077.015-.207.065-.17.066-.21.006.065.023 0 .049.197.053.416.143 1.207.238 1.304a.35.35 0 0 0 .13.088.501.501 0 0 0 .163.02c.183 0 .21.002.393.004.133 0 .28-.003.381-.087.064-.053.108-.809.159-1.196.031-.241.084-.193.089-.192-.007.029.002-.025.015.192.021.324.051.957.052 1 .003.118.054.243.162.3.116.063.181.031.314.025a.655.655 0 0 1 .324.066c.05.02.1.043.153.049.055.006.115-.012.141-.058.019-.032.005-.072.014-.107.022-.081.075-.804.121-1.18.032-.26.06-.211.072-.253-.006.026.038.016.044.279.008.36-.021 1.02-.029 1.044-.022.07-.003.146.012.218a.188.188 0 0 0 .051.105.218.218 0 0 0 .098.043c.113.026.156.027.26.08.046.025.088.059.135.083.108.053.312.047.433.04.052-.004.108-.009.148-.043.012-.01.043-.737.085-1.132.022-.211.068-.208.07-.217.005.02.059-.034.078.172.039.42.059 1.246.094 1.27.058.043.134.051.206.058.183.016.495.026.655-.062a.604.604 0 0 0 .269-.356c.045-.145.048-.3.043-.45-.002-.05-.005-.64-.019-.687-.021-.069.367-1.475.435-1.782.179-.816.054-.982.054-1.803 0-1.301 2.721-1.595 3.025-1.595.283 0 2.205-.215 2.44-.317.146-.063.75-.386.907-.486.358-.23 1.186-.79 1.626-1.415.384-.544.504-1.917.767-2.528.155-.362.154-.651-.165-.955Zm-14.11 5.375c-.038.22-.255.497-.46.58-.296.12-.635.046-.861-.263-.159-.216-.351-.41-.522-.618-.39-.478-.467-.474-.838 0-.166.212-.363.401-.522.618-.226.309-.564.383-.861.263-.204-.083-.422-.36-.459-.58a7.277 7.277 0 0 1 .829-4.866c.288-.518.482-1.186 1.14-1.456.095-.04.194-.065.292-.079.099.014.197.04.292.078.571.235.94 1.05 1.14 1.411a7.412 7.412 0 0 1 .83 4.912Zm-1.208-6.973c0-.227.637-.815 1.368-.56.259.09 1.181.076 1.377.053.323-.04.712-.186.954-.347.938-.626.879-.797 1.716-1.541 1.024-.91 1.922-1.956 2.912-2.905a7.245 7.245 0 0 1 1.408-1.041c.363-.209 1.65-.323 2.069-.4.476-.089.877.123.856.608-.024.563-.059 1.141-.211 1.68-.448 1.6-.804 3.516-1.73 4.909-.095.143-.586.61-.737.703-.773.477-1.469.926-2.335 1.142-.118.029-.807-.346-.966-.408-1.25-.492-1.994-.546-3.329-.66-.23-.02-2.328-.61-3.352-1.233Zm-2.107 0c-1.025.624-3.122 1.212-3.353 1.232-1.334.115-2.079.169-3.329.66-.158.063-.847.438-.965.409-.866-.216-1.562-.665-2.336-1.142-.151-.093-.642-.56-.737-.703-.926-1.393-1.282-3.31-1.73-4.909-.151-.539-.187-1.117-.211-1.68-.02-.485.38-.697.856-.608.419.077 1.707.191 2.07.4.504.29.99.64 1.408 1.041.989.95 1.888 1.994 2.911 2.905.838.744.778.915 1.716 1.54.242.162.631.309.954.348.196.023 1.118.036 1.377-.054.731-.254 1.369.359 1.369.56ZM227.233 38.523v-.97h-.353v-.178h.911v.177h-.353v.971h-.205ZM228.971 38.523v-.887l-.356.887h-.088l-.358-.887v.887h-.204v-1.148h.288l.318.788.317-.788h.288v1.148h-.205Z" fill="#fff"/></svg>