<svg width="96" height="24" fill="none" xmlns="http://www.w3.org/2000/svg"><g clip-path="url(#a)"><path d="M43.428 6.258c1.45-1.453 3.2-2.18 5.247-2.18 2.048 0 3.797.727 5.247 2.18 1.45 1.453 2.176 3.206 2.176 5.258 0 2.051-.726 3.804-2.176 5.257-1.45 1.453-3.2 2.18-5.247 2.18-2.047 0-3.796-.727-5.247-2.18-1.45-1.453-2.175-3.206-2.175-5.257 0-2.052.725-3.805 2.175-5.258Zm7.586 2.915a3.18 3.18 0 0 0-2.338-.968c-.915 0-1.695.323-2.339.968a3.194 3.194 0 0 0-.965 2.343c0 .902.322 1.675.965 2.32a3.181 3.181 0 0 0 2.339.968 3.18 3.18 0 0 0 2.338-.968c.644-.645.966-1.418.966-2.32 0-.917-.322-1.698-.966-2.343ZM17.64 13.627a5.262 5.262 0 0 1-3.231 4.867 5.178 5.178 0 0 1-2.066.416 5.221 5.221 0 0 1-3.535-1.35 5.092 5.092 0 0 1-1.625 1.006c-.606.23-1.25.347-1.898.344a5.12 5.12 0 0 1-2.059-.416 5.399 5.399 0 0 1-1.678-1.13 5.262 5.262 0 0 1-1.133-1.68A5.16 5.16 0 0 1 0 13.627V8.601l3.536-1.602v6.628a1.757 1.757 0 0 0 1.069 1.616c.215.092.446.138.68.136.235.002.47-.045.687-.136.212-.088.405-.216.57-.376a1.71 1.71 0 0 0 .518-1.24l.021-8.069 3.523-1.616-.022 9.685c-.002.235.046.467.142.681.092.208.221.398.382.559.16.16.349.288.557.376.215.092.446.138.68.136.468.002.917-.182 1.25-.513.16-.16.29-.35.382-.558.095-.214.144-.446.142-.681l.04-11.393 3.53-1.63-.047 13.023Zm6.127 5.023h-3.562V4.75h3.562v13.9Z" fill="#fff"/><path d="M22.191.012a1.809 1.809 0 0 0-.272-.01L21.875 0v.004A1.779 1.779 0 0 0 20.31 1.18a1.788 1.788 0 0 0 .457 1.905 1.78 1.78 0 0 0 3-1.301V.073L22.19.013Z" fill="#558FFC"/><path d="M78.972 22.004H78v.763h.944v.211H78v.782h.998v.211H77.76v-2.177h1.21l.001.21Zm2.196.202a1.526 1.526 0 0 0-.756-.214c-.516 0-.91.38-.91.897 0 .521.391.885.9.885.288 0 .536-.083.788-.23v.259c-.24.129-.509.197-.781.198-.698 0-1.164-.505-1.164-1.112 0-.686.564-1.123 1.147-1.123.268 0 .53.073.775.182v.258Zm.245.677c0-.575.43-1.118 1.16-1.118.707 0 1.163.524 1.163 1.118 0 .65-.523 1.117-1.176 1.117-.637.001-1.147-.476-1.147-1.117Zm2.069-.007a.884.884 0 0 0-.908-.884.878.878 0 0 0-.905.894c0 .53.423.887.889.887.518 0 .923-.373.923-.897Zm2.664 1.095h-.24v-1.814l-.748.93h-.026l-.752-.93v1.814h-.24v-2.177h.23l.775.954.77-.954h.23v2.177Zm2.513 0h-.24v-1.814l-.748.93h-.026l-.752-.93v1.814h-.239v-2.177h.23l.774.954.771-.954h.23v2.177Zm1.721-1.967h-.973v.763h.944v.211h-.944v.782h.998v.211h-1.237v-2.177h1.21l.001.21Zm.933-.21c.564 0 .717.322.717.584 0 .297-.182.456-.39.534.157.102.265.271.533.693.093.147.14.214.249.367h-.287l-.207-.329a4.842 4.842 0 0 0-.28-.402c-.14-.179-.262-.265-.495-.265h-.156v.996h-.239v-2.178h.555Zm-.316.21v.76h.28c.31 0 .498-.134.498-.383 0-.227-.166-.377-.497-.377h-.28Zm3.371.202a1.528 1.528 0 0 0-.755-.214c-.516 0-.911.38-.911.897 0 .521.392.885.902.885.287 0 .535-.083.787-.23v.259a1.66 1.66 0 0 1-.78.198c-.698 0-1.163-.505-1.163-1.112 0-.686.564-1.123 1.147-1.123.267 0 .529.073.774.182v.258Zm1.606-.202h-.972v.763h.944v.211h-.944v.782H96v.211h-1.237v-2.177h1.21l.001.21ZM33.086 4.101c1.582 0 3.006.443 4.27 1.33a7.194 7.194 0 0 1 2.688 3.473H35.11a3.309 3.309 0 0 0-2.025-.676c-.915 0-1.69.319-2.327.956-.636.638-.954 1.415-.954 2.332 0 .917.318 1.698.954 2.344.636.645 1.412.967 2.327.967.869 0 1.629-.303 2.28-.91h4.748a7.355 7.355 0 0 1-2.688 3.638c-1.28.933-2.726 1.4-4.34 1.399-2.047 0-3.792-.723-5.235-2.168-1.443-1.446-2.165-3.202-2.165-5.27 0-2.052.722-3.8 2.164-5.246 1.444-1.446 3.189-2.17 5.237-2.17Zm36.997-.023c1.52 0 2.83.548 3.932 1.644 1.101 1.096 1.652 2.405 1.652 3.928v9.304h-4.142V9.65a1.39 1.39 0 0 0-.43-1.014 1.384 1.384 0 0 0-1.012-.431c-.388 0-.726.144-1.013.431a1.39 1.39 0 0 0-.43 1.014v9.304h-4.118V9.65a1.39 1.39 0 0 0-.43-1.014 1.384 1.384 0 0 0-1.013-.431c-.404 0-.745.144-1.024.431-.28.288-.419.626-.419 1.014v9.304h-4.119V9.65c0-1.538.547-2.852 1.64-3.94 1.095-1.088 2.402-1.633 3.922-1.632 1.303 0 2.474.42 3.514 1.259a5.294 5.294 0 0 1 3.49-1.26Zm20.277 0c1.52 0 2.832.548 3.933 1.644 1.101 1.096 1.652 2.405 1.652 3.928v9.304h-4.142V9.65a1.39 1.39 0 0 0-.43-1.014 1.384 1.384 0 0 0-1.013-.431c-.387 0-.725.144-1.011.431a1.39 1.39 0 0 0-.43 1.014v9.304H84.8V9.65a1.39 1.39 0 0 0-.43-1.014 1.384 1.384 0 0 0-1.013-.431c-.403 0-.744.144-1.024.431a1.41 1.41 0 0 0-.419 1.014v9.304h-4.119V9.65c0-1.538.547-2.852 1.64-3.94 1.094-1.088 2.401-1.633 3.921-1.632 1.303 0 2.475.42 3.514 1.259a5.294 5.294 0 0 1 3.49-1.26Z" fill="#fff"/></g><defs><clipPath id="a"><path fill="#fff" d="M0 0h96v24H0z"/></clipPath></defs></svg>