<svg width="20" height="11" viewBox="0 0 23 14" fill="none" xmlns="http://www.w3.org/2000/svg"><path fill-rule="evenodd" clip-rule="evenodd" d="M11.179 11.8a6.802 6.802 0 0 1-4.398 1.6C3.036 13.4 0 10.4 0 6.7S3.036 0 6.78 0C8.46 0 9.996.602 11.18 1.6A6.802 6.802 0 0 1 15.577 0c3.745 0 6.781 3 6.781 6.7s-3.036 6.7-6.78 6.7a6.802 6.802 0 0 1-4.399-1.6Z" fill="#ED0006"/><path fill-rule="evenodd" clip-rule="evenodd" d="M11.179 11.8a6.653 6.653 0 0 0 2.382-5.1c0-2.042-.924-3.87-2.382-5.1A6.802 6.802 0 0 1 15.577 0c3.745 0 6.78 3 6.78 6.7s-3.035 6.7-6.78 6.7a6.802 6.802 0 0 1-4.398-1.6Z" fill="#F9A000"/><path fill-rule="evenodd" clip-rule="evenodd" d="M11.179 11.8a6.653 6.653 0 0 0 2.382-5.1c0-2.042-.924-3.87-2.382-5.1a6.653 6.653 0 0 0-2.382 5.1c0 2.042.924 3.87 2.382 5.1Z" fill="#FF5E00"/></svg>