<svg width="180" height="180" fill="none" xmlns="http://www.w3.org/2000/svg"><path opacity=".2" d="M23.273 52.454a5.696 5.696 0 0 0-.773 2.882v69.329a5.693 5.693 0 0 0 2.883 4.921l61.875 34.805c.834.477 1.781.72 2.742.703l.633-75.093-67.36-37.547Z" fill="#CACACA"/><path d="M157.5 124.664V55.336a5.693 5.693 0 0 0-2.883-4.922L92.742 15.61a5.484 5.484 0 0 0-5.484 0L25.383 50.414a5.696 5.696 0 0 0-2.883 4.922v69.328a5.694 5.694 0 0 0 2.883 4.922l61.875 34.805a5.488 5.488 0 0 0 5.484 0l61.875-34.805a5.69 5.69 0 0 0 2.883-4.922v0Z" stroke="#CACACA" stroke-width="5" stroke-linecap="round" stroke-linejoin="round"/><path d="M124.453 107.227V70.664L56.25 33.047" stroke="#CACACA" stroke-width="5" stroke-linecap="round" stroke-linejoin="round"/><path d="M156.727 52.454 90.633 90l-67.36-37.547M90.633 90 90 165.094" stroke="#CACACA" stroke-width="5" stroke-linecap="round" stroke-linejoin="round"/></svg>