<svg width="20" height="20" fill="none" xmlns="http://www.w3.org/2000/svg"><path d="M13.75 6.25h3.328a.617.617 0 0 1 .578.39l1.094 2.735M1.25 11.25h12.5M14.688 16.875a1.875 1.875 0 1 0 0-3.75 1.875 1.875 0 0 0 0 3.75ZM5.313 16.875a1.875 1.875 0 1 0 0-3.75 1.875 1.875 0 0 0 0 3.75ZM12.813 15H7.186" stroke="#FF9601" stroke-width="1.5" stroke-linecap="round" stroke-linejoin="round"/><path d="M3.438 15H1.875a.625.625 0 0 1-.625-.625v-8.75A.625.625 0 0 1 1.875 5H13.75v8.375M13.75 9.375h5v5a.624.624 0 0 1-.625.625h-1.563" stroke="#FF9601" stroke-width="1.5" stroke-linecap="round" stroke-linejoin="round"/></svg>