<svg width="26" height="8" fill="none" xmlns="http://www.w3.org/2000/svg"><path d="M23.878.112H22.27c-.486 0-.86.15-1.085.637l-3.07 6.998h2.171s.375-.935.45-1.16h2.657c.075.262.262 1.123.262 1.123H25.6L23.878.112Zm-2.545 4.903c.188-.449.824-2.133.824-2.133 0 .037.187-.45.262-.711l.15.673s.411 1.834.486 2.209h-1.722v-.038ZM18.264 5.24c0 1.572-1.422 2.62-3.63 2.62-.936 0-1.834-.187-2.32-.412l.299-1.722.262.113c.674.299 1.123.411 1.946.411.599 0 1.235-.224 1.235-.748 0-.337-.262-.562-1.085-.936-.786-.374-1.834-.973-1.834-2.058C13.137 1.01 14.597 0 16.655 0c.786 0 1.46.15 1.871.337l-.3 1.647-.149-.15c-.374-.15-.86-.3-1.572-.3-.786.038-1.16.375-1.16.674 0 .337.45.599 1.16.936 1.198.561 1.76 1.198 1.76 2.096Z" fill="#3362AB"/><path d="m0 .187.037-.15h3.22c.448 0 .785.15.897.637l.712 3.368C4.154 2.246 2.507.786 0 .187Z" fill="#F9B50B"/><path d="M9.394.112 6.138 7.71H3.93L2.058 1.347c1.348.861 2.47 2.208 2.882 3.144l.225.786L7.186.075h2.208v.037ZM10.255.075h2.058l-1.31 7.635H8.946l1.31-7.635Z" fill="#3362AB"/></svg>