<svg width="66" height="24" fill="none" xmlns="http://www.w3.org/2000/svg"><path d="M25.973 0H5.009a2.156 2.156 0 0 0-1.907 3.168L5.2 7.138H1.397A1.399 1.399 0 0 0 .161 9.185l6.746 12.763a1.398 1.398 0 0 0 2.47 0l1.832-3.447 2.3 4.35a2.157 2.157 0 0 0 3.811.004L27.83 3.087A2.099 2.099 0 0 0 25.972 0Zm-9.421 8.446-4.531 8.526a.93.93 0 0 1-1.645 0l-4.488-8.49a.93.93 0 0 1 .82-1.37h9.045a.906.906 0 0 1 .799 1.33v.004Zm31.72.725H45.98v7.857a.27.27 0 0 1-.271.27H43.94a.27.27 0 0 1-.271-.27V9.171h-2.307a.256.256 0 0 1-.27-.257v-1.39a.255.255 0 0 1 .167-.24.257.257 0 0 1 .103-.016h6.91a.272.272 0 0 1 .284.257v1.39a.271.271 0 0 1-.284.256Zm7.366 8.07c-.903.127-1.814.185-2.726.172-1.742 0-3.28-.446-3.28-2.903v-4.483c0-2.456 1.552-2.888 3.293-2.888a17.57 17.57 0 0 1 2.712.17c.19.027.271.096.271.271v1.257a.27.27 0 0 1-.27.27H52.79c-.635 0-.864.216-.864.918v1.229h3.602a.27.27 0 0 1 .27.27v1.285a.27.27 0 0 1-.27.27h-3.603v1.43c0 .702.23.918.865.918h2.846a.27.27 0 0 1 .271.27v1.256c0 .18-.081.262-.27.288Zm10.186.056h-2.147a.358.358 0 0 1-.35-.203l-1.862-2.953-1.686 2.888c-.095.162-.19.27-.337.27h-1.998a.178.178 0 0 1-.202-.17.248.248 0 0 1 .027-.095l2.924-4.88-2.955-4.63a.191.191 0 0 1-.027-.081.194.194 0 0 1 .203-.171h2.173c.148 0 .257.135.337.257l1.727 2.726 1.672-2.726a.437.437 0 0 1 .336-.257h1.998a.195.195 0 0 1 .203.17.191.191 0 0 1-.027.082l-2.94 4.658 3.067 4.847a.299.299 0 0 1 .04.136c0 .078-.068.132-.176.132ZM37.859 7.295a.208.208 0 0 0-.204.17l-1.96 7.252c-.026.148-.067.202-.189.202-.121 0-.162-.056-.19-.202l-1.961-7.253a.21.21 0 0 0-.204-.171h-1.93a.209.209 0 0 0-.203.257s2.398 8.316 2.42 8.397a2.03 2.03 0 0 0 2.083 1.464 2.096 2.096 0 0 0 2.08-1.461c.038-.112 2.38-8.401 2.38-8.401a.208.208 0 0 0-.204-.257l-1.918.003Z" fill="#fff"/><path d="M25.973 0H5.009a2.156 2.156 0 0 0-1.907 3.168L5.2 7.138H1.397A1.399 1.399 0 0 0 .161 9.185l6.746 12.763a1.398 1.398 0 0 0 2.47 0l1.832-3.447 2.3 4.35a2.157 2.157 0 0 0 3.811.004L27.83 3.087A2.099 2.099 0 0 0 25.972 0Zm-9.421 8.446-4.531 8.526a.93.93 0 0 1-1.645 0l-4.488-8.49a.93.93 0 0 1 .82-1.37h9.045a.906.906 0 0 1 .799 1.33v.004Z" fill="#fff"/></svg>